<?xml version="1.0" encoding="UTF-8" standalone="no"?><!DOCTYPE svg PUBLIC "-//W3C//DTD SVG 1.1//EN" "http://www.w3.org/Graphics/SVG/1.1/DTD/svg11.dtd"><svg width="100%" height="100%" viewBox="0 0 738 409" version="1.1" xmlns="http://www.w3.org/2000/svg" xmlns:xlink="http://www.w3.org/1999/xlink" xml:space="preserve" xmlns:serif="http://www.serif.com/" style="fill-rule:evenodd;clip-rule:evenodd;stroke-linejoin:round;stroke-miterlimit:2;"><g id="Artboard1"><rect x="0" y="0" width="737.5" height="408.333" style="fill:#0f172a;"/><g><clipPath id="_clip1"><rect x="0" y="0" width="737.5" height="408.333"/></clipPath><g clip-path="url(#_clip1)"><g><g><path d="M444.788,200.417c0,10 -2.083,19.583 -6.667,28.333c-9.583,20 -27.5,36.667 -54.166,50c-26.667,13.333 -54.583,20 -83.333,20c-43.75,0 -73.75,-15 -89.583,-45c-28.75,23.75 -49.167,35.833 -61.25,35.833c-2.083,0 -4.167,-0.417 -5.833,-1.25c-8.333,-4.583 -12.5,-14.167 -12.5,-28.75c0,-14.583 6.25,-32.917 18.333,-54.167c12.083,-21.25 22.917,-34.167 32.083,-37.917c4.167,-1.25 7.5,-2.083 9.583,-2.083c7.917,0 14.167,6.667 18.333,20l12.5,40c7.917,-8.75 19.167,-22.5 32.917,-41.25l37.083,-50c45.417,-59.167 75.416,-91.667 89.583,-97.084c5,-2.083 10,-2.917 15.417,-2.917c5.417,0 9.583,1.25 13.333,3.333c3.333,2.083 5,5 5,8.333c0,5 -4.167,7.917 -12.083,8.75c-8.333,4.583 -24.167,18.333 -47.5,41.25c-23.75,22.917 -37.5,37.5 -42.083,43.75c-31.25,43.333 -60,76.667 -86.25,100c17.083,33.75 42.5,50.417 76.25,50.417c20.417,0 40.833,-6.25 61.25,-19.583c20.417,-12.5 35.417,-28.75 45.417,-47.5c4.583,-7.917 6.667,-17.083 6.667,-27.083c0,-10 -3.75,-19.583 -11.667,-28.75c-7.917,-8.75 -17.917,-15.417 -30,-19.583c-5.417,-0.833 -14.583,-2.083 -26.667,-3.75c-12.083,-1.25 -18.333,-3.75 -18.333,-7.5c0,-1.25 0.417,-2.5 1.667,-3.75c3.333,-3.75 7.5,-5.833 12.917,-5.833c2.917,0 6.25,0.417 9.167,1.667c2.917,1.25 10.417,3.75 12.5,4.583c6.25,0.417 11.25,0.833 15.833,0.833c18.333,0 35,-2.917 50,-8.75c19.167,-7.5 31.25,-18.75 36.667,-33.75c3.333,-9.583 5,-18.333 5,-26.25c0,-19.167 -9.167,-33.333 -27.917,-42.917c-16.25,-8.333 -38.333,-12.5 -66.25,-12.5c-44.167,0 -83.75,8.333 -118.75,25c-17.917,8.333 -34.583,20.833 -50.417,37.083c-16.25,16.25 -24.167,30.417 -24.167,42.083c0,7.917 2.083,14.583 6.25,20c1.667,2.083 4.583,5 8.75,8.333c1.25,0.833 0.417,1.25 -2.5,1.25c-17.083,-3.75 -25.833,-15.417 -25.833,-34.583c0,-19.167 9.583,-37.083 29.167,-54.167c14.583,-12.5 30.833,-22.5 48.75,-30.417c37.5,-16.25 80,-24.167 127.916,-24.167c34.167,0 61.25,5 81.666,15c23.75,11.25 35.417,27.917 35.417,50.417c0,8.75 -1.667,17.917 -5.417,27.083c-5.833,16.667 -20.833,29.167 -45.417,37.917c-18.333,6.25 -37.917,9.583 -59.166,10c16.25,0.833 30.417,6.667 41.667,17.917c10.833,11.25 16.667,25.417 16.667,42.083Zm-266.249,-15.417c-0.417,0 -0.833,0.417 -2.083,0.833c-20.417,29.583 -30.833,53.75 -30.833,71.667c0,7.5 1.667,14.167 5.417,20.417c0.833,1.25 2.083,2.083 4.167,2.083c8.75,0 25.833,-12.5 51.25,-37.917l-1.25,-1.667c-11.25,-37.083 -20,-55.417 -26.667,-55.417Z" style="fill:#86888b;fill-rule:nonzero;"/></g></g><g><g><path d="M461.93,249.335c-13.75,0 -26.667,-1.25 -38.75,-3.333c3.75,12.083 12.083,40 24.583,82.917c3.75,12.5 10,25 18.333,37.917c11.25,16.25 22.083,24.583 31.667,24.583c11.667,0 21.25,-11.667 29.167,-35.417c1.25,-5.417 2.917,-8.333 4.583,-8.333c1.25,0 2.5,1.667 3.333,4.583c0.417,3.333 0.833,5.417 0.833,6.667c0,7.083 -3.75,15.833 -11.667,26.667c-10.417,15.417 -21.667,22.917 -33.75,22.917c-12.083,0 -23.333,-6.25 -33.75,-18.333c-10.417,-12.083 -20.417,-34.583 -30,-67.083c-10,-32.083 -15,-52.917 -15,-61.667c0,-1.25 0,-2.5 0.417,-3.333c-33.333,44.167 -57.083,73.333 -71.666,87.5c-32.083,31.25 -65,47.083 -98.75,47.083c-23.75,0 -35.417,-8.75 -35.417,-26.667c0,-8.75 2.917,-18.75 8.333,-29.583c5.417,-10.417 12.5,-20 20.417,-27.917c7.917,-7.917 15,-12.083 21.25,-12.083c1.25,0 1.667,0.417 1.667,0.833c0,1.25 -3.333,5 -10.417,10.417c-7.083,5.417 -13.75,13.333 -20,23.333c-6.25,10.417 -9.583,19.583 -9.583,27.917c0,14.583 10,22.083 29.583,22.083c37.083,0 87.916,-43.333 152.5,-130c3.75,-4.583 6.667,-7.917 9.167,-10l-6.667,-2.5c-3.75,1.25 -6.667,2.083 -8.75,2.083c-5.833,0 -8.75,-2.5 -8.75,-7.083c0,-6.25 4.167,-10.417 12.917,-12.5c1.25,-0.417 2.083,-0.417 2.917,-0.417c5,0 10.833,2.5 17.5,7.5c24.583,-27.083 37.083,-41.25 37.5,-41.667c20.417,-20.833 34.167,-31.25 41.25,-31.25c7.083,0 10.417,2.917 10.417,9.167c0,2.917 -0.417,5.417 -1.667,7.917c-1.25,2.5 -2.917,3.75 -4.583,3.75c-1.667,0.417 -2.5,-0.417 -2.5,-2.5c0,-1.25 0.833,-2.917 2.5,-5c0.417,-3.75 -0.833,-5.833 -3.75,-5.833c-8.75,0 -30.417,23.75 -64.583,70.833c8.333,0.417 15.417,0.833 20.833,0.833c64.583,0 104.583,-16.667 120.833,-50c3.333,-7.083 5,-13.75 5,-20c0,-12.083 -5.417,-22.917 -16.667,-31.667c-17.917,-14.583 -46.667,-21.667 -86.666,-21.667c-40,0 -80.833,10 -122.5,30.417c-50.417,24.583 -75.833,53.75 -75.833,87.083c0,10.833 6.667,16.25 20.417,16.25c13.75,0 27.917,-5 43.333,-15c15.417,-10 25.417,-20 30.833,-29.583c2.083,-3.75 3.75,-5.417 5.833,-5.417c1.667,0 2.083,1.25 1.25,3.333c-5.417,15.417 -17.083,28.75 -35,39.583c-18.333,11.25 -37.5,16.667 -57.083,16.667c-19.583,0 -29.583,-6.25 -29.583,-18.75l0,-2.917c4.167,-36.25 26.667,-67.083 67.083,-92.917c40,-25.417 88.75,-37.917 145.833,-37.917c52.917,0 90.833,9.167 112.916,27.5c13.333,11.25 20,24.167 20,39.167c0,6.25 -1.667,13.333 -4.583,20.833c-8.75,20.417 -26.25,35.417 -52.917,45c-26.667,10 -54.583,15 -84.166,15Z" style="fill:#86888b;fill-rule:nonzero;"/></g></g><g><g><path d="M104.444,200.17c0,3.333 -0.694,6.528 -2.222,9.444c-3.194,6.667 -9.167,12.222 -18.055,16.667c-8.889,4.444 -18.194,6.667 -27.778,6.667c-14.583,0 -24.583,-5 -29.861,-15c-9.583,7.917 -16.389,11.944 -20.417,11.944c-0.694,0 -1.389,-0.139 -1.944,-0.417c-2.778,-1.528 -4.167,-4.722 -4.167,-9.583c0,-4.861 2.083,-10.972 6.111,-18.056c4.028,-7.083 7.639,-11.389 10.694,-12.639c1.389,-0.417 2.5,-0.694 3.194,-0.694c2.639,0 4.722,2.222 6.111,6.667l4.167,13.333c2.639,-2.917 6.389,-7.5 10.972,-13.75l12.361,-16.667c15.139,-19.722 25.139,-30.556 29.861,-32.361c1.667,-0.694 3.333,-0.972 5.139,-0.972c1.806,0 3.194,0.417 4.444,1.111c1.111,0.694 1.667,1.667 1.667,2.778c0,1.667 -1.389,2.639 -4.028,2.917c-2.778,1.528 -8.056,6.111 -15.833,13.75c-7.917,7.639 -12.5,12.5 -14.028,14.583c-10.417,14.444 -20,25.556 -28.75,33.333c5.694,11.25 14.167,16.806 25.417,16.806c6.806,0 13.611,-2.083 20.417,-6.528c6.806,-4.167 11.806,-9.583 15.139,-15.833c1.528,-2.639 2.222,-5.694 2.222,-9.028c0,-3.333 -1.25,-6.528 -3.889,-9.583c-2.639,-2.917 -5.972,-5.139 -10,-6.528c-1.806,-0.278 -4.861,-0.694 -8.889,-1.25c-4.028,-0.417 -6.111,-1.25 -6.111,-2.5c0,-0.417 0.139,-0.833 0.556,-1.25c1.111,-1.25 2.5,-1.944 4.306,-1.944c0.972,0 2.083,0.139 3.056,0.556c0.972,0.417 3.472,1.25 4.167,1.528c2.083,0.139 3.75,0.278 5.278,0.278c6.111,0 11.667,-0.972 16.667,-2.917c6.389,-2.5 10.417,-6.25 12.222,-11.25c1.111,-3.194 1.667,-6.111 1.667,-8.75c0,-6.389 -3.056,-11.111 -9.306,-14.306c-5.417,-2.778 -12.778,-4.167 -22.083,-4.167c-14.722,0 -27.917,2.778 -39.583,8.333c-5.972,2.778 -11.528,6.944 -16.805,12.361c-5.417,5.417 -8.056,10.139 -8.056,14.028c0,2.639 0.694,4.861 2.083,6.667c0.556,0.694 1.528,1.667 2.917,2.778c0.417,0.278 0.139,0.417 -0.833,0.417c-5.694,-1.25 -8.611,-5.139 -8.611,-11.528c0,-6.389 3.194,-12.361 9.722,-18.056c4.861,-4.167 10.278,-7.5 16.25,-10.139c12.5,-5.417 26.667,-8.056 42.639,-8.056c11.389,0 20.417,1.667 27.222,5c7.917,3.75 11.806,9.306 11.806,16.806c0,2.917 -0.556,5.972 -1.806,9.028c-1.944,5.556 -6.944,9.722 -15.139,12.639c-6.111,2.083 -12.639,3.194 -19.722,3.333c5.417,0.278 10.139,2.222 13.889,5.972c3.611,3.75 5.556,8.472 5.556,14.028Zm-88.75,-5.139c-0.139,0 -0.278,0.139 -0.694,0.278c-6.806,9.861 -10.278,17.917 -10.278,23.889c0,2.5 0.556,4.722 1.806,6.806c0.278,0.417 0.694,0.694 1.389,0.694c2.917,0 8.611,-4.167 17.083,-12.639l-0.417,-0.556c-3.75,-12.361 -6.667,-18.472 -8.889,-18.472Z" style="fill:#fff;fill-rule:nonzero;"/></g><g><path d="M147.499,196.976c0,3.194 -3.056,8.611 -9.306,16.25c-7.361,9.028 -13.611,13.472 -18.75,13.472l-2.222,0c-2.361,0 -4.306,-1.25 -5.694,-3.75c-1.111,-1.806 -1.667,-3.75 -1.667,-5.833c0,-5.556 4.028,-13.333 12.222,-23.472c8.056,-10 14.583,-15 19.583,-15c4.722,0 7.083,2.5 7.083,7.5c0,1.25 -0.278,2.917 -0.694,5c0.139,0.278 0.972,0.417 2.639,0.417c1.667,0 4.167,-0.833 7.639,-2.639c-0.139,1.528 -3.75,3.889 -10.972,6.806c0.139,0.417 0.139,0.833 0.139,1.25Zm-9.028,-7.222c-3.194,0 -7.639,3.75 -13.333,11.111c-5.833,7.361 -8.75,12.917 -8.75,16.389c0,3.472 1.111,5.278 3.333,5.278c4.028,0 9.028,-3.611 15.139,-10.833c6.111,-7.222 9.167,-12.361 9.167,-15.556c-1.528,-0.833 -3.333,-2.917 -5.556,-6.389Z" style="fill:#fff;fill-rule:nonzero;"/></g><g><path d="M181.944,191.837c0,-6.25 1.944,-9.444 5.833,-9.444c0.417,0 0.833,0 1.25,0.139c1.528,0.278 2.361,1.528 2.361,3.611c0,2.083 -0.417,4.861 -1.111,8.056c-0.694,2.361 -1.25,4.167 -1.528,5.417c0.278,1.528 1.111,3.611 2.361,5.972c1.25,2.5 2.917,3.75 5.139,3.75c2.083,0 4.583,-1.528 7.222,-4.444c0.556,-0.694 1.111,-0.972 1.667,-0.972c0.417,0 0.694,0.278 0.833,0.833c0,0.694 -0.417,1.528 -1.111,2.5c-2.917,3.472 -5.833,5.139 -9.028,5.139c-4.583,0 -8.194,-3.333 -10.972,-10c-2.917,6.528 -6.944,12.222 -12.222,16.944c-5.278,4.861 -10.556,7.222 -15.694,7.222c-4.861,0 -7.361,-3.75 -7.361,-11.111c0,-5.833 5.417,-16.528 16.389,-32.222c10.833,-15.694 19.167,-23.472 24.861,-23.472c1.25,0 2.361,0.417 3.333,1.111c0.972,0.694 1.389,1.667 1.389,2.639c0,-0.139 -0.694,0.556 -1.944,2.083c-1.389,1.528 -5,5.417 -10.972,11.944c-5.972,6.528 -11.944,13.611 -17.639,21.389c-5.694,7.778 -8.611,13.75 -8.611,18.056c0,1.111 0.278,2.361 0.972,3.611c0.556,1.25 1.528,1.944 2.917,1.944c4.028,0 8.889,-3.194 14.305,-9.444c4.583,-5.556 7.361,-10.278 8.333,-14.028c-0.694,-1.944 -0.972,-4.306 -0.972,-7.222Z" style="fill:#fff;fill-rule:nonzero;"/></g><g><path d="M307.915,188.92c-4.583,0 -8.889,-0.417 -12.917,-1.111c1.25,4.028 4.028,13.333 8.194,27.639c1.25,4.167 3.333,8.333 6.111,12.639c3.75,5.417 7.361,8.194 10.556,8.194c3.889,0 7.083,-3.889 9.722,-11.806c0.417,-1.806 0.972,-2.778 1.528,-2.778c0.417,0 0.833,0.556 1.111,1.528c0.139,1.111 0.278,1.806 0.278,2.222c0,2.361 -1.25,5.278 -3.889,8.889c-3.472,5.139 -7.222,7.639 -11.25,7.639c-4.028,0 -7.778,-2.083 -11.25,-6.111c-3.472,-4.028 -6.806,-11.528 -10,-22.361c-3.333,-10.694 -5,-17.639 -5,-20.556c0,-0.417 0,-0.833 0.139,-1.111c-11.111,14.722 -19.028,24.444 -23.889,29.167c-10.694,10.417 -21.667,15.694 -32.917,15.694c-7.917,0 -11.806,-2.917 -11.806,-8.889c0,-2.917 0.972,-6.25 2.778,-9.861c1.806,-3.472 4.167,-6.667 6.806,-9.306c2.639,-2.639 5,-4.028 7.083,-4.028c0.417,0 0.556,0.139 0.556,0.278c0,0.417 -1.111,1.667 -3.472,3.472c-2.361,1.806 -4.583,4.444 -6.667,7.778c-2.083,3.472 -3.194,6.528 -3.194,9.306c0,4.861 3.333,7.361 9.861,7.361c12.361,0 29.305,-14.444 50.833,-43.333c1.25,-1.528 2.222,-2.639 3.056,-3.333l-2.222,-0.833c-1.25,0.417 -2.222,0.694 -2.917,0.694c-1.944,0 -2.917,-0.833 -2.917,-2.361c0,-2.083 1.389,-3.472 4.306,-4.167c0.417,-0.139 0.694,-0.139 0.972,-0.139c1.667,0 3.611,0.833 5.833,2.5c8.194,-9.028 12.361,-13.75 12.5,-13.889c6.806,-6.944 11.389,-10.417 13.75,-10.417c2.361,0 3.472,0.972 3.472,3.056c0,0.972 -0.139,1.806 -0.556,2.639c-0.417,0.833 -0.972,1.25 -1.528,1.25c-0.556,0.139 -0.833,-0.139 -0.833,-0.833c0,-0.417 0.278,-0.972 0.833,-1.667c0.139,-1.25 -0.278,-1.944 -1.25,-1.944c-2.917,0 -10.139,7.917 -21.528,23.611c2.778,0.139 5.139,0.278 6.944,0.278c21.528,0 34.861,-5.556 40.278,-16.667c1.111,-2.361 1.667,-4.583 1.667,-6.667c0,-4.028 -1.806,-7.639 -5.556,-10.556c-5.972,-4.861 -15.555,-7.222 -28.889,-7.222c-13.333,0 -26.944,3.333 -40.833,10.139c-16.805,8.194 -25.278,17.917 -25.278,29.028c0,3.611 2.222,5.417 6.806,5.417c4.583,0 9.306,-1.667 14.444,-5c5.139,-3.333 8.472,-6.667 10.278,-9.861c0.694,-1.25 1.25,-1.806 1.944,-1.806c0.556,0 0.694,0.417 0.417,1.111c-1.806,5.139 -5.694,9.583 -11.667,13.194c-6.111,3.75 -12.5,5.556 -19.028,5.556c-6.528,0 -9.861,-2.083 -9.861,-6.25l0,-0.972c1.389,-12.083 8.889,-22.361 22.361,-30.972c13.333,-8.472 29.583,-12.639 48.611,-12.639c17.639,0 30.278,3.056 37.639,9.167c4.444,3.75 6.667,8.056 6.667,13.056c0,2.083 -0.556,4.444 -1.528,6.944c-2.917,6.806 -8.75,11.806 -17.639,15c-8.889,3.333 -18.194,5 -28.055,5Z" style="fill:#fff;fill-rule:nonzero;"/></g><g><path d="M369.167,196.976c0,3.194 -3.056,8.611 -9.306,16.25c-7.361,9.028 -13.611,13.472 -18.75,13.472l-2.222,0c-2.361,0 -4.306,-1.25 -5.694,-3.75c-1.111,-1.806 -1.667,-3.75 -1.667,-5.833c0,-5.556 4.028,-13.333 12.222,-23.472c8.056,-10 14.583,-15 19.583,-15c4.722,0 7.083,2.5 7.083,7.5c0,1.25 -0.278,2.917 -0.694,5c0.139,0.278 0.972,0.417 2.639,0.417c1.667,0 4.167,-0.833 7.639,-2.639c-0.139,1.528 -3.75,3.889 -10.972,6.806c0.139,0.417 0.139,0.833 0.139,1.25Zm-9.028,-7.222c-3.194,0 -7.639,3.75 -13.333,11.111c-5.833,7.361 -8.75,12.917 -8.75,16.389c0,3.472 1.111,5.278 3.333,5.278c4.028,0 9.028,-3.611 15.139,-10.833c6.111,-7.222 9.167,-12.361 9.167,-15.556c-1.528,-0.833 -3.333,-2.917 -5.556,-6.389Z" style="fill:#fff;fill-rule:nonzero;"/></g><g><path d="M382.498,228.226c-0.972,0 -1.944,-0.139 -2.778,-0.417c-5.972,-1.667 -8.889,-5 -8.889,-10c0,-6.528 4.028,-14.028 12.222,-22.5c8.194,-8.472 15.417,-12.778 21.944,-12.778c2.083,0 3.889,0.556 5.278,1.667c1.25,1.25 1.944,2.778 1.944,4.722c0,2.083 -0.556,4.167 -1.806,6.25c-1.25,2.222 -3.056,3.333 -5.417,3.333c-2.361,0 -3.611,-0.694 -3.611,-2.222c0,-0.972 0.694,-2.639 1.944,-4.722c1.25,-2.083 1.806,-3.194 1.806,-3.333c0,-0.139 -0.139,-0.139 -0.417,-0.139c-2.639,0.278 -6.111,2.083 -10.556,5.556c-4.583,3.472 -7.639,6.25 -9.306,8.611l-5.417,7.917c-0.972,1.528 -1.528,3.194 -1.944,5.278c-0.417,2.083 -0.694,3.611 -0.694,4.583c0,0.972 0.556,2.222 1.806,3.472c1.111,1.25 2.778,1.944 4.861,1.944c4.583,0 10.417,-2.778 17.222,-8.194c6.806,-5.417 12.083,-10.556 15.833,-15.417c0.417,-0.556 0.972,-0.833 1.667,-0.833c0.694,0 0.972,0.139 0.972,0.556c0,0.417 -0.278,0.833 -0.694,1.389c-5.139,6.806 -11.111,12.639 -18.194,17.639c-7.083,5.139 -13.056,7.639 -17.778,7.639Z" style="fill:#fff;fill-rule:nonzero;"/></g><g><path d="M439.723,228.087c-7.361,0 -13.472,-5.833 -18.611,-17.361c-1.25,1.944 -4.167,7.361 -8.75,16.389c-3.333,-1.25 -5,-3.056 -5,-5.278c0,-4.028 5.972,-14.861 17.917,-32.778c11.944,-17.917 20.139,-28.333 24.583,-31.528c0.417,-0.278 1.111,-0.417 2.222,-0.417c2.917,0 4.306,0.694 4.306,2.222c0,0.694 -3.194,4.861 -9.583,12.5c-6.528,7.639 -10.139,12.222 -10.833,13.75c8.472,-4.306 15.139,-6.528 20.139,-6.528c2.917,0 5.278,1.111 7.361,3.472c1.944,1.944 2.917,3.889 2.917,5.972l0,0.833c-0.694,5.278 -4.444,9.583 -11.111,13.056c-5.417,2.917 -10.417,4.306 -15,4.306c-4.583,0 -7.917,-0.556 -9.722,-1.806c-0.556,-0.139 -0.972,0 -1.25,0.417c-0.417,0.417 -0.417,0.833 -0.278,1.389c2.639,11.528 6.944,17.222 12.917,17.222c3.194,0 7.222,-1.806 12.222,-5.278c4.861,-3.472 10,-8.472 15.417,-14.861c0.694,-0.694 1.25,-0.972 1.806,-0.972c0.417,0 0.694,0.278 0.694,0.694c0,0.556 -0.278,1.25 -0.972,2.222c-5,6.111 -9.722,10.972 -14.167,14.444c-6.806,5.278 -12.5,7.917 -17.222,7.917Zm20,-42.5c0,-0.694 -0.417,-1.528 -1.25,-2.222c-0.833,-0.694 -1.667,-1.111 -2.639,-1.111c-5,0 -10.972,2.083 -17.917,6.25c-7.083,4.167 -11.389,8.889 -12.917,14.167c0.833,0 3.056,0.139 6.667,0.417c4.167,0 9.583,-1.667 16.389,-5.139c7.778,-3.889 11.667,-8.056 11.667,-12.361Z" style="fill:#fff;fill-rule:nonzero;"/></g><g><path d="M473.055,228.226c-0.972,0 -1.944,-0.139 -2.778,-0.417c-5.972,-1.667 -8.889,-5 -8.889,-10c0,-6.528 4.028,-14.028 12.222,-22.5c8.194,-8.472 15.417,-12.778 21.944,-12.778c2.083,0 3.889,0.556 5.278,1.667c1.25,1.25 1.944,2.639 1.944,4.306c0,5.139 -3.889,10.139 -11.667,14.861c-7.917,4.722 -14.305,7.083 -19.167,7.083c-0.694,0 -1.389,-0.139 -1.944,-0.278c-1.389,2.5 -2.083,5.139 -2.083,7.917c0,4.861 2.361,7.222 6.944,7.222c4.444,0 10.417,-3.056 17.778,-9.306c5.694,-4.583 10.417,-9.306 14.444,-14.444c0.833,-1.111 1.528,-1.667 2.222,-1.667c0.556,0 0.833,0.278 0.833,0.833c0,0.556 -0.417,1.389 -1.111,2.361c-5,6.528 -10.972,12.361 -18.055,17.5c-7.083,5.139 -13.056,7.639 -17.917,7.639Zm26.25,-40c0,-1.111 -1.111,-1.667 -3.472,-1.667c-2.361,0 -5.833,1.806 -10.139,5.417c-5.833,4.861 -10.417,9.861 -13.611,15.139c0.556,0.139 1.111,0.278 1.806,0.278c3.472,0 8.194,-1.944 14.167,-5.694c5.833,-3.611 9.444,-7.778 10.972,-12.222c0.139,-0.417 0.278,-0.833 0.278,-1.25Z" style="fill:#fff;fill-rule:nonzero;"/></g><g><path d="M558.334,158.504c0,2.917 -0.833,4.306 -2.5,4.306c-0.417,0 -0.972,-0.417 -1.389,-1.111c-0.833,-1.528 -2.222,-2.222 -4.167,-2.222c-4.306,0 -8.194,3.056 -11.944,9.167c-0.694,1.25 -3.056,5.556 -6.944,13.056l1.667,0c10.139,0 16.805,-0.139 20.139,-0.417c0.417,0.139 0.556,0.278 0.556,0.556c0,0.694 -3.333,1.806 -9.861,3.056c-6.25,0.972 -11.25,1.944 -15.278,2.639c-2.917,5.972 -6.389,12.917 -10.417,21.111c-8.333,15.556 -13.889,25.278 -16.528,29.028c-8.056,11.528 -15.972,17.222 -23.611,17.222c-2.639,0 -5,-1.111 -7.083,-3.333c-1.944,-2.361 -2.917,-4.861 -3.056,-7.639c0.278,-1.111 0.694,-1.667 1.25,-1.667c0.278,0 0.417,0.278 0.556,0.972c0.556,2.361 1.528,4.306 2.778,5.556c1.25,1.25 2.639,1.944 4.028,1.944c7.917,0 15,-4.861 21.528,-14.583c3.75,-5.556 8.75,-15.556 15.139,-30l7.5,-18.056c-9.306,-0.139 -13.889,-1.25 -13.889,-3.333c0,-0.972 0.417,-1.667 1.389,-2.361c0.833,-0.694 1.528,-0.972 2.222,-0.972l13.056,0.278c9.028,-20.139 17.361,-30.278 25,-30.278c2.917,0 5.833,1.389 8.75,4.167c0.694,0.694 1.111,1.667 1.111,2.917Z" style="fill:#fff;fill-rule:nonzero;"/></g><g><path d="M542.359,228.226c-0.972,0 -1.944,-0.139 -2.778,-0.417c-5.972,-1.667 -8.889,-5 -8.889,-10c0,-6.528 4.028,-14.028 12.222,-22.5c8.194,-8.472 15.417,-12.778 21.944,-12.778c2.083,0 3.889,0.556 5.278,1.667c1.25,1.25 1.944,2.639 1.944,4.306c0,5.139 -3.889,10.139 -11.667,14.861c-7.917,4.722 -14.305,7.083 -19.167,7.083c-0.694,0 -1.389,-0.139 -1.944,-0.278c-1.389,2.5 -2.083,5.139 -2.083,7.917c0,4.861 2.361,7.222 6.944,7.222c4.444,0 10.417,-3.056 17.778,-9.306c5.694,-4.583 10.417,-9.306 14.444,-14.444c0.833,-1.111 1.528,-1.667 2.222,-1.667c0.556,0 0.833,0.278 0.833,0.833c0,0.556 -0.417,1.389 -1.111,2.361c-5,6.528 -10.972,12.361 -18.055,17.5c-7.083,5.139 -13.056,7.639 -17.917,7.639Zm26.25,-40c0,-1.111 -1.111,-1.667 -3.472,-1.667c-2.361,0 -5.833,1.806 -10.139,5.417c-5.833,4.861 -10.417,9.861 -13.611,15.139c0.556,0.139 1.111,0.278 1.806,0.278c3.472,0 8.194,-1.944 14.167,-5.694c5.833,-3.611 9.444,-7.778 10.972,-12.222c0.139,-0.417 0.278,-0.833 0.278,-1.25Z" style="fill:#fff;fill-rule:nonzero;"/></g><g><path d="M576.388,219.476c0,2.778 1.528,4.167 4.583,4.167c3.056,0 6.944,-1.667 11.806,-4.861c4.861,-3.194 9.444,-7.639 14.028,-13.194c1.111,-1.528 1.944,-2.222 2.639,-2.222c0.694,0 0.972,0.278 0.972,0.833c0,0.556 -1.944,2.917 -5.694,7.222c-9.306,10.139 -16.944,15.278 -23.194,15.278c-3.056,0 -5.694,-0.694 -7.778,-2.222c-2.083,-1.389 -3.194,-3.611 -3.194,-6.667c0,-2.917 0.833,-6.389 2.361,-10.417c2.639,-6.25 6.944,-14.167 12.917,-23.75c10.833,-17.639 18.472,-26.389 23.055,-26.389c0.972,0 1.944,0.278 2.917,0.972c0.972,0.694 1.389,1.528 1.528,2.361c-2.083,2.917 -6.25,8.333 -12.222,16.528c-6.111,8.194 -10.278,14.028 -12.639,17.5c-2.361,3.611 -4.028,6.25 -5.139,8.056c-1.25,1.806 -2.083,3.056 -2.639,4.028c-0.556,0.972 -1.25,2.361 -1.944,3.889c-1.528,3.194 -2.361,6.111 -2.361,8.889Z" style="fill:#fff;fill-rule:nonzero;"/></g><g><path d="M610.138,219.476c0,2.778 1.528,4.167 4.583,4.167c3.056,0 6.944,-1.667 11.806,-4.861c4.861,-3.194 9.444,-7.639 14.028,-13.194c1.111,-1.528 1.944,-2.222 2.639,-2.222c0.694,0 0.972,0.278 0.972,0.833c0,0.556 -1.944,2.917 -5.694,7.222c-9.306,10.139 -16.944,15.278 -23.194,15.278c-3.056,0 -5.694,-0.694 -7.778,-2.222c-2.083,-1.389 -3.194,-3.611 -3.194,-6.667c0,-2.917 0.833,-6.389 2.361,-10.417c2.639,-6.25 6.944,-14.167 12.917,-23.75c10.833,-17.639 18.472,-26.389 23.055,-26.389c0.972,0 1.944,0.278 2.917,0.972c0.972,0.694 1.389,1.528 1.528,2.361c-2.083,2.917 -6.25,8.333 -12.222,16.528c-6.111,8.194 -10.278,14.028 -12.639,17.5c-2.361,3.611 -4.028,6.25 -5.139,8.056c-1.25,1.806 -2.083,3.056 -2.639,4.028c-0.556,0.972 -1.25,2.361 -1.944,3.889c-1.528,3.194 -2.361,6.111 -2.361,8.889Z" style="fill:#fff;fill-rule:nonzero;"/></g><g><path d="M645.554,228.226c-0.972,0 -1.944,-0.139 -2.778,-0.417c-5.972,-1.667 -8.889,-5 -8.889,-10c0,-6.528 4.028,-14.028 12.222,-22.5c8.194,-8.472 15.417,-12.778 21.944,-12.778c2.083,0 3.889,0.556 5.278,1.667c1.25,1.25 1.944,2.639 1.944,4.306c0,5.139 -3.889,10.139 -11.667,14.861c-7.917,4.722 -14.305,7.083 -19.167,7.083c-0.694,0 -1.389,-0.139 -1.944,-0.278c-1.389,2.5 -2.083,5.139 -2.083,7.917c0,4.861 2.361,7.222 6.944,7.222c4.444,0 10.417,-3.056 17.778,-9.306c5.694,-4.583 10.417,-9.306 14.444,-14.444c0.833,-1.111 1.528,-1.667 2.222,-1.667c0.556,0 0.833,0.278 0.833,0.833c0,0.556 -0.417,1.389 -1.111,2.361c-5,6.528 -10.972,12.361 -18.055,17.5c-7.083,5.139 -13.056,7.639 -17.917,7.639Zm26.25,-40c0,-1.111 -1.111,-1.667 -3.472,-1.667c-2.361,0 -5.833,1.806 -10.139,5.417c-5.833,4.861 -10.417,9.861 -13.611,15.139c0.556,0.139 1.111,0.278 1.806,0.278c3.472,0 8.194,-1.944 14.167,-5.694c5.833,-3.611 9.444,-7.778 10.972,-12.222c0.139,-0.417 0.278,-0.833 0.278,-1.25Z" style="fill:#fff;fill-rule:nonzero;"/></g><g><path d="M702.5,227.115c-6.944,0 -10.417,-3.889 -10.417,-11.528c0,-3.889 0.972,-8.194 3.056,-12.778c2.083,-4.583 4.306,-8.472 6.667,-11.667c-0.417,0.139 -1.111,0.139 -1.806,0.139c-2.222,0 -4.028,-1.528 -5.556,-4.722l-10.278,13.333c-5.694,7.083 -9.028,10.694 -10,10.694c-0.417,0 -0.694,-0.139 -0.694,-0.556c0,-0.972 0.833,-2.222 2.361,-4.028c8.056,-9.306 13.75,-17.222 17.083,-23.75c2.083,-8.056 4.861,-12.083 8.056,-12.083c2.083,0 3.194,0.972 3.194,2.778c0,1.806 -1.111,4.167 -3.472,7.083l-3.333,4.444c0,1.944 1.389,2.917 4.306,2.917c1.667,0 3.472,-0.556 5.556,-1.806l3.611,-2.222c0.139,-0.139 0.694,-0.139 1.389,-0.139c0.694,0 1.528,0.417 2.361,1.389c0.833,0.972 1.111,1.806 0.833,2.5l-9.583,12.083c-5.972,7.639 -8.889,13.611 -8.889,17.917c0,4.444 2.083,6.667 6.111,6.667c4.306,0 9.444,-2.222 15.694,-6.806c3.75,-2.639 7.083,-5.694 10.139,-9.028c2.917,-3.333 4.444,-5 4.722,-5c0.694,0 0.972,0.278 0.972,0.972c0,0.694 -0.417,1.528 -1.25,2.5l-4.444,5c-2.5,2.639 -5.278,5.139 -8.333,7.5c-7.361,5.417 -13.333,8.194 -18.055,8.194Z" style="fill:#fff;fill-rule:nonzero;"/></g></g></g></g></g></svg>