<?xml version="1.0" encoding="UTF-8" standalone="no"?><!DOCTYPE svg PUBLIC "-//W3C//DTD SVG 1.1//EN" "http://www.w3.org/Graphics/SVG/1.1/DTD/svg11.dtd"><svg width="100%" height="100%" viewBox="0 0 667 209" version="1.1" xmlns="http://www.w3.org/2000/svg" xmlns:xlink="http://www.w3.org/1999/xlink" xml:space="preserve" xmlns:serif="http://www.serif.com/" style="fill-rule:evenodd;clip-rule:evenodd;stroke-linejoin:round;stroke-miterlimit:2;"><g id="Artboard1"><rect x="0" y="0" width="664.352" height="208.333" style="fill:#0f172a;"/><g><clipPath id="_clip1"><rect x="0" y="0" width="664.352" height="208.333"/></clipPath><g clip-path="url(#_clip1)"><g><g><path d="M345.23,84.168c0,4.2 -0.875,8.224 -2.8,11.899c-4.025,8.399 -11.549,15.399 -22.748,20.998c-11.199,5.6 -22.923,8.399 -34.997,8.399c-18.373,0 -30.972,-6.299 -37.622,-18.898c-12.074,9.974 -20.648,15.049 -25.723,15.049c-0.875,0 -1.75,-0.175 -2.45,-0.525c-3.5,-1.925 -5.25,-5.949 -5.25,-12.074c0,-6.124 2.625,-13.824 7.699,-22.748c5.075,-8.924 9.624,-14.349 13.474,-15.924c1.75,-0.525 3.15,-0.875 4.025,-0.875c3.325,0 5.949,2.8 7.699,8.399l5.25,16.799c3.325,-3.675 8.049,-9.449 13.824,-17.324l15.574,-20.998c19.073,-24.848 31.672,-38.497 37.622,-40.772c2.1,-0.875 4.2,-1.225 6.474,-1.225c2.275,0 4.025,0.525 5.6,1.4c1.4,0.875 2.1,2.1 2.1,3.5c0,2.1 -1.75,3.325 -5.075,3.675c-3.5,1.925 -10.149,7.699 -19.948,17.324c-9.974,9.624 -15.749,15.749 -17.674,18.373c-13.124,18.198 -25.198,32.197 -36.222,41.996c7.174,14.174 17.848,21.173 32.022,21.173c8.574,0 17.149,-2.625 25.723,-8.224c8.574,-5.25 14.874,-12.074 19.073,-19.948c1.925,-3.325 2.8,-7.174 2.8,-11.374c0,-4.2 -1.575,-8.224 -4.9,-12.074c-3.325,-3.675 -7.524,-6.474 -12.599,-8.224c-2.275,-0.35 -6.124,-0.875 -11.199,-1.575c-5.075,-0.525 -7.699,-1.575 -7.699,-3.15c0,-0.525 0.175,-1.05 0.7,-1.575c1.4,-1.575 3.15,-2.45 5.425,-2.45c1.225,0 2.625,0.175 3.85,0.7c1.225,0.525 4.375,1.575 5.25,1.925c2.625,0.175 4.725,0.35 6.649,0.35c7.699,0 14.699,-1.225 20.998,-3.675c8.049,-3.15 13.124,-7.874 15.399,-14.174c1.4,-4.025 2.1,-7.699 2.1,-11.024c0,-8.049 -3.85,-13.999 -11.724,-18.023c-6.824,-3.5 -16.099,-5.25 -27.823,-5.25c-18.548,0 -35.172,3.5 -49.871,10.499c-7.524,3.5 -14.524,8.749 -21.173,15.574c-6.824,6.824 -10.149,12.774 -10.149,17.674c0,3.325 0.875,6.124 2.625,8.399c0.7,0.875 1.925,2.1 3.675,3.5c0.525,0.35 0.175,0.525 -1.05,0.525c-7.174,-1.575 -10.849,-6.474 -10.849,-14.524c0,-8.049 4.025,-15.574 12.249,-22.748c6.124,-5.25 12.949,-9.449 20.473,-12.774c15.749,-6.824 33.597,-10.149 53.72,-10.149c14.349,0 25.723,2.1 34.297,6.299c9.974,4.725 14.874,11.724 14.874,21.173c0,3.675 -0.7,7.524 -2.275,11.374c-2.45,6.999 -8.749,12.249 -19.073,15.924c-7.699,2.625 -15.924,4.025 -24.848,4.2c6.824,0.35 12.774,2.8 17.499,7.524c4.55,4.725 6.999,10.674 6.999,17.674Zm-111.816,-6.474c-0.175,0 -0.35,0.175 -0.875,0.35c-8.574,12.424 -12.949,22.573 -12.949,30.097c0,3.15 0.7,5.949 2.275,8.574c0.35,0.525 0.875,0.875 1.75,0.875c3.675,0 10.849,-5.25 21.523,-15.924l-0.525,-0.7c-4.725,-15.574 -8.399,-23.273 -11.199,-23.273Z" style="fill:#939598;fill-rule:nonzero;"/></g></g><g><g><path d="M367.66,141.489c-5.775,0 -11.199,-0.525 -16.274,-1.4c1.575,5.075 5.075,16.799 10.324,34.822c1.575,5.25 4.2,10.499 7.699,15.924c4.725,6.824 9.274,10.324 13.299,10.324c4.9,0 8.924,-4.9 12.249,-14.874c0.525,-2.275 1.225,-3.5 1.925,-3.5c0.525,0 1.05,0.7 1.4,1.925c0.175,1.4 0.35,2.275 0.35,2.8c0,2.975 -1.575,6.649 -4.9,11.199c-4.375,6.474 -9.099,9.624 -14.174,9.624c-5.075,0 -9.799,-2.625 -14.174,-7.699c-4.375,-5.075 -8.574,-14.524 -12.599,-28.173c-4.2,-13.474 -6.299,-22.223 -6.299,-25.898c0,-0.525 0,-1.05 0.175,-1.4c-13.999,18.548 -23.973,30.797 -30.097,36.747c-13.474,13.124 -27.298,19.773 -41.472,19.773c-9.974,0 -14.874,-3.675 -14.874,-11.199c0,-3.675 1.225,-7.874 3.5,-12.424c2.275,-4.375 5.25,-8.399 8.574,-11.724c3.325,-3.325 6.299,-5.075 8.924,-5.075c0.525,0 0.7,0.175 0.7,0.35c0,0.525 -1.4,2.1 -4.375,4.375c-2.975,2.275 -5.775,5.6 -8.399,9.799c-2.625,4.375 -4.025,8.224 -4.025,11.724c0,6.124 4.2,9.274 12.424,9.274c15.574,0 36.922,-18.198 64.045,-54.595c1.575,-1.925 2.8,-3.325 3.85,-4.2l-2.8,-1.05c-1.575,0.525 -2.8,0.875 -3.675,0.875c-2.45,0 -3.675,-1.05 -3.675,-2.975c0,-2.625 1.75,-4.375 5.425,-5.25c0.525,-0.175 0.875,-0.175 1.225,-0.175c2.1,0 4.55,1.05 7.349,3.15c10.324,-11.374 15.574,-17.324 15.749,-17.499c8.574,-8.749 14.349,-13.124 17.324,-13.124c2.975,0 4.375,1.225 4.375,3.85c0,1.225 -0.175,2.275 -0.7,3.325c-0.525,1.05 -1.225,1.575 -1.925,1.575c-0.7,0.175 -1.05,-0.175 -1.05,-1.05c0,-0.525 0.35,-1.225 1.05,-2.1c0.175,-1.575 -0.35,-2.45 -1.575,-2.45c-3.675,0 -12.774,9.974 -27.123,29.747c3.5,0.175 6.474,0.35 8.749,0.35c27.123,0 43.921,-6.999 50.746,-20.998c1.4,-2.975 2.1,-5.775 2.1,-8.399c0,-5.075 -2.275,-9.624 -6.999,-13.299c-7.524,-6.124 -19.598,-9.099 -36.397,-9.099c-16.799,0 -33.947,4.2 -51.446,12.774c-21.173,10.324 -31.847,22.573 -31.847,36.572c0,4.55 2.8,6.824 8.574,6.824c5.775,0 11.724,-2.1 18.198,-6.299c6.474,-4.2 10.674,-8.399 12.949,-12.424c0.875,-1.575 1.575,-2.275 2.45,-2.275c0.7,0 0.875,0.525 0.525,1.4c-2.275,6.474 -7.174,12.074 -14.699,16.624c-7.699,4.725 -15.749,6.999 -23.973,6.999c-8.224,0 -12.424,-2.625 -12.424,-7.874l0,-1.225c1.75,-15.224 11.199,-28.173 28.173,-39.022c16.799,-10.674 37.272,-15.924 61.245,-15.924c22.223,0 38.147,3.85 47.421,11.549c5.6,4.725 8.399,10.149 8.399,16.449c0,2.625 -0.7,5.6 -1.925,8.749c-3.675,8.574 -11.024,14.874 -22.223,18.898c-11.199,4.2 -22.923,6.299 -35.347,6.299Z" style="fill:#939598;fill-rule:nonzero;"/></g></g><g><g><path d="M95.036,112.784c0,3.033 -0.632,5.94 -2.022,8.594c-2.907,6.066 -8.341,11.121 -16.429,15.165c-8.088,4.044 -16.556,6.066 -25.276,6.066c-13.27,0 -22.369,-4.55 -27.171,-13.649c-8.72,7.204 -14.913,10.869 -18.578,10.869c-0.632,0 -1.264,-0.126 -1.769,-0.379c-2.528,-1.39 -3.791,-4.297 -3.791,-8.72c0,-4.423 1.896,-9.984 5.561,-16.429c3.665,-6.445 6.951,-10.363 9.731,-11.5c1.264,-0.379 2.275,-0.632 2.907,-0.632c2.401,0 4.297,2.022 5.561,6.066l3.791,12.132c2.401,-2.654 5.813,-6.824 9.984,-12.511l11.248,-15.165c13.775,-17.946 22.874,-27.803 27.171,-29.446c1.517,-0.632 3.033,-0.885 4.676,-0.885c1.643,0 2.907,0.379 4.044,1.011c1.011,0.632 1.517,1.517 1.517,2.528c0,1.517 -1.264,2.401 -3.665,2.654c-2.528,1.39 -7.33,5.561 -14.407,12.511c-7.204,6.951 -11.374,11.374 -12.764,13.27c-9.478,13.143 -18.198,23.254 -26.16,30.331c5.182,10.237 12.891,15.292 23.127,15.292c6.193,0 12.385,-1.896 18.578,-5.94c6.193,-3.791 10.742,-8.72 13.775,-14.407c1.39,-2.401 2.022,-5.182 2.022,-8.215c0,-3.033 -1.137,-5.94 -3.539,-8.72c-2.401,-2.654 -5.434,-4.676 -9.099,-5.94c-1.643,-0.253 -4.423,-0.632 -8.088,-1.137c-3.665,-0.379 -5.561,-1.137 -5.561,-2.275c0,-0.379 0.126,-0.758 0.506,-1.137c1.011,-1.137 2.275,-1.769 3.918,-1.769c0.885,0 1.896,0.126 2.78,0.506c0.885,0.379 3.159,1.137 3.791,1.39c1.896,0.126 3.412,0.253 4.802,0.253c5.561,0 10.616,-0.885 15.165,-2.654c5.813,-2.275 9.478,-5.687 11.121,-10.237c1.011,-2.907 1.517,-5.561 1.517,-7.962c0,-5.813 -2.78,-10.11 -8.467,-13.017c-4.929,-2.528 -11.627,-3.791 -20.094,-3.791c-13.396,0 -25.402,2.528 -36.018,7.583c-5.434,2.528 -10.489,6.319 -15.292,11.248c-4.929,4.929 -7.33,9.226 -7.33,12.764c0,2.401 0.632,4.423 1.896,6.066c0.506,0.632 1.39,1.517 2.654,2.528c0.379,0.253 0.126,0.379 -0.758,0.379c-5.182,-1.137 -7.835,-4.676 -7.835,-10.489c0,-5.813 2.907,-11.248 8.846,-16.429c4.423,-3.791 9.352,-6.824 14.786,-9.226c11.374,-4.929 24.265,-7.33 38.798,-7.33c10.363,0 18.578,1.517 24.77,4.55c7.204,3.412 10.742,8.467 10.742,15.292c0,2.654 -0.506,5.434 -1.643,8.215c-1.769,5.055 -6.319,8.846 -13.775,11.5c-5.561,1.896 -11.5,2.907 -17.946,3.033c4.929,0.253 9.226,2.022 12.638,5.434c3.286,3.412 5.055,7.709 5.055,12.764Zm-80.756,-4.676c-0.126,0 -0.253,0.126 -0.632,0.253c-6.193,8.973 -9.352,16.303 -9.352,21.737c0,2.275 0.506,4.297 1.643,6.193c0.253,0.379 0.632,0.632 1.264,0.632c2.654,0 7.835,-3.791 15.545,-11.5l-0.379,-0.506c-3.412,-11.248 -6.066,-16.808 -8.088,-16.808Z" style="fill:#fff;fill-rule:nonzero;"/></g><g><path d="M134.214,109.877c0,2.907 -2.78,7.835 -8.467,14.786c-6.698,8.215 -12.385,12.259 -17.061,12.259l-2.022,0c-2.148,0 -3.918,-1.137 -5.182,-3.412c-1.011,-1.643 -1.517,-3.412 -1.517,-5.308c0,-5.055 3.665,-12.132 11.121,-21.358c7.33,-9.099 13.27,-13.649 17.819,-13.649c4.297,0 6.445,2.275 6.445,6.824c0,1.137 -0.253,2.654 -0.632,4.55c0.126,0.253 0.885,0.379 2.401,0.379c1.517,0 3.791,-0.758 6.951,-2.401c-0.126,1.39 -3.412,3.539 -9.984,6.193c0.126,0.379 0.126,0.758 0.126,1.137Zm-8.215,-6.572c-2.907,0 -6.951,3.412 -12.132,10.11c-5.308,6.698 -7.962,11.753 -7.962,14.913c0,3.159 1.011,4.802 3.033,4.802c3.665,0 8.215,-3.286 13.775,-9.858c5.561,-6.572 8.341,-11.248 8.341,-14.154c-1.39,-0.758 -3.033,-2.654 -5.055,-5.813Z" style="fill:#fff;fill-rule:nonzero;"/></g><g><path d="M165.555,105.201c0,-5.687 1.769,-8.594 5.308,-8.594c0.379,0 0.758,0 1.137,0.126c1.39,0.253 2.148,1.39 2.148,3.286c0,1.896 -0.379,4.423 -1.011,7.33c-0.632,2.148 -1.137,3.791 -1.39,4.929c0.253,1.39 1.011,3.286 2.148,5.434c1.137,2.275 2.654,3.412 4.676,3.412c1.896,0 4.17,-1.39 6.572,-4.044c0.506,-0.632 1.011,-0.885 1.517,-0.885c0.379,0 0.632,0.253 0.758,0.758c0,0.632 -0.379,1.39 -1.011,2.275c-2.654,3.159 -5.308,4.676 -8.215,4.676c-4.17,0 -7.456,-3.033 -9.984,-9.099c-2.654,5.94 -6.319,11.121 -11.121,15.418c-4.802,4.423 -9.605,6.572 -14.281,6.572c-4.423,0 -6.698,-3.412 -6.698,-10.11c0,-5.308 4.929,-15.039 14.913,-29.32c9.858,-14.281 17.44,-21.358 22.622,-21.358c1.137,0 2.148,0.379 3.033,1.011c0.885,0.632 1.264,1.517 1.264,2.401c0,-0.126 -0.632,0.506 -1.769,1.896c-1.264,1.39 -4.55,4.929 -9.984,10.869c-5.434,5.94 -10.869,12.385 -16.05,19.462c-5.182,7.077 -7.835,12.511 -7.835,16.429c0,1.011 0.253,2.148 0.885,3.286c0.506,1.137 1.39,1.769 2.654,1.769c3.665,0 8.088,-2.907 13.017,-8.594c4.17,-5.055 6.698,-9.352 7.583,-12.764c-0.632,-1.769 -0.885,-3.918 -0.885,-6.572Z" style="fill:#fff;fill-rule:nonzero;"/></g><g><path d="M280.181,102.547c-4.17,0 -8.088,-0.379 -11.753,-1.011c1.137,3.665 3.665,12.132 7.456,25.149c1.137,3.791 3.033,7.583 5.561,11.5c3.412,4.929 6.698,7.456 9.605,7.456c3.539,0 6.445,-3.539 8.846,-10.742c0.379,-1.643 0.885,-2.528 1.39,-2.528c0.379,0 0.758,0.506 1.011,1.39c0.126,1.011 0.253,1.643 0.253,2.022c0,2.148 -1.137,4.802 -3.539,8.088c-3.159,4.676 -6.572,6.951 -10.237,6.951c-3.665,0 -7.077,-1.896 -10.237,-5.561c-3.159,-3.665 -6.193,-10.489 -9.099,-20.347c-3.033,-9.731 -4.55,-16.05 -4.55,-18.704c0,-0.379 0,-0.758 0.126,-1.011c-10.11,13.396 -17.314,22.243 -21.737,26.539c-9.731,9.478 -19.715,14.281 -29.952,14.281c-7.204,0 -10.742,-2.654 -10.742,-8.088c0,-2.654 0.885,-5.687 2.528,-8.973c1.643,-3.159 3.791,-6.066 6.193,-8.467c2.401,-2.401 4.55,-3.665 6.445,-3.665c0.379,0 0.506,0.126 0.506,0.253c0,0.379 -1.011,1.517 -3.159,3.159c-2.148,1.643 -4.17,4.044 -6.066,7.077c-1.896,3.159 -2.907,5.94 -2.907,8.467c0,4.423 3.033,6.698 8.973,6.698c11.248,0 26.666,-13.143 46.254,-39.43c1.137,-1.39 2.022,-2.401 2.78,-3.033l-2.022,-0.758c-1.137,0.379 -2.022,0.632 -2.654,0.632c-1.769,0 -2.654,-0.758 -2.654,-2.148c0,-1.896 1.264,-3.159 3.918,-3.791c0.379,-0.126 0.632,-0.126 0.885,-0.126c1.517,0 3.286,0.758 5.308,2.275c7.456,-8.215 11.248,-12.511 11.374,-12.638c6.193,-6.319 10.363,-9.478 12.511,-9.478c2.148,0 3.159,0.885 3.159,2.78c0,0.885 -0.126,1.643 -0.506,2.401c-0.379,0.758 -0.885,1.137 -1.39,1.137c-0.506,0.126 -0.758,-0.126 -0.758,-0.758c0,-0.379 0.253,-0.885 0.758,-1.517c0.126,-1.137 -0.253,-1.769 -1.137,-1.769c-2.654,0 -9.226,7.204 -19.589,21.484c2.528,0.126 4.676,0.253 6.319,0.253c19.589,0 31.721,-5.055 36.65,-15.165c1.011,-2.148 1.517,-4.17 1.517,-6.066c0,-3.665 -1.643,-6.951 -5.055,-9.605c-5.434,-4.423 -14.154,-6.572 -26.287,-6.572c-12.132,0 -24.517,3.033 -37.155,9.226c-15.292,7.456 -23.001,16.303 -23.001,26.413c0,3.286 2.022,4.929 6.193,4.929c4.17,0 8.467,-1.517 13.143,-4.55c4.676,-3.033 7.709,-6.066 9.352,-8.973c0.632,-1.137 1.137,-1.643 1.769,-1.643c0.506,0 0.632,0.379 0.379,1.011c-1.643,4.676 -5.182,8.72 -10.616,12.006c-5.561,3.412 -11.374,5.055 -17.314,5.055c-5.94,0 -8.973,-1.896 -8.973,-5.687l0,-0.885c1.264,-10.995 8.088,-20.347 20.347,-28.182c12.132,-7.709 26.919,-11.5 44.232,-11.5c16.05,0 27.55,2.78 34.249,8.341c4.044,3.412 6.066,7.33 6.066,11.88c0,1.896 -0.506,4.044 -1.39,6.319c-2.654,6.193 -7.962,10.742 -16.05,13.649c-8.088,3.033 -16.556,4.55 -25.528,4.55Z" style="fill:#fff;fill-rule:nonzero;"/></g><g><path d="M335.913,109.877c0,2.907 -2.78,7.835 -8.467,14.786c-6.698,8.215 -12.385,12.259 -17.061,12.259l-2.022,0c-2.148,0 -3.918,-1.137 -5.182,-3.412c-1.011,-1.643 -1.517,-3.412 -1.517,-5.308c0,-5.055 3.665,-12.132 11.121,-21.358c7.33,-9.099 13.27,-13.649 17.819,-13.649c4.297,0 6.445,2.275 6.445,6.824c0,1.137 -0.253,2.654 -0.632,4.55c0.126,0.253 0.885,0.379 2.401,0.379c1.517,0 3.791,-0.758 6.951,-2.401c-0.126,1.39 -3.412,3.539 -9.984,6.193c0.126,0.379 0.126,0.758 0.126,1.137Zm-8.215,-6.572c-2.907,0 -6.951,3.412 -12.132,10.11c-5.308,6.698 -7.962,11.753 -7.962,14.913c0,3.159 1.011,4.802 3.033,4.802c3.665,0 8.215,-3.286 13.775,-9.858c5.561,-6.572 8.341,-11.248 8.341,-14.154c-1.39,-0.758 -3.033,-2.654 -5.055,-5.813Z" style="fill:#fff;fill-rule:nonzero;"/></g><g><path d="M348.046,138.312c-0.885,0 -1.769,-0.126 -2.528,-0.379c-5.434,-1.517 -8.088,-4.55 -8.088,-9.099c0,-5.94 3.665,-12.764 11.121,-20.473c7.456,-7.709 14.028,-11.627 19.968,-11.627c1.896,0 3.539,0.506 4.802,1.517c1.137,1.137 1.769,2.528 1.769,4.297c0,1.896 -0.506,3.791 -1.643,5.687c-1.137,2.022 -2.78,3.033 -4.929,3.033c-2.148,0 -3.286,-0.632 -3.286,-2.022c0,-0.885 0.632,-2.401 1.769,-4.297c1.137,-1.896 1.643,-2.907 1.643,-3.033c0,-0.126 -0.126,-0.126 -0.379,-0.126c-2.401,0.253 -5.561,1.896 -9.605,5.055c-4.17,3.159 -6.951,5.687 -8.467,7.835l-4.929,7.204c-0.885,1.39 -1.39,2.907 -1.769,4.802c-0.379,1.896 -0.632,3.286 -0.632,4.17c0,0.885 0.506,2.022 1.643,3.159c1.011,1.137 2.528,1.769 4.423,1.769c4.17,0 9.478,-2.528 15.671,-7.456c6.193,-4.929 10.995,-9.605 14.407,-14.028c0.379,-0.506 0.885,-0.758 1.517,-0.758c0.632,0 0.885,0.126 0.885,0.506c0,0.379 -0.253,0.758 -0.632,1.264c-4.676,6.193 -10.11,11.5 -16.556,16.05c-6.445,4.676 -11.88,6.951 -16.176,6.951Z" style="fill:#fff;fill-rule:nonzero;"/></g><g><path d="M400.114,138.186c-6.698,0 -12.259,-5.308 -16.935,-15.797c-1.137,1.769 -3.791,6.698 -7.962,14.913c-3.033,-1.137 -4.55,-2.78 -4.55,-4.802c0,-3.665 5.434,-13.522 16.303,-29.825c10.869,-16.303 18.325,-25.781 22.369,-28.688c0.379,-0.253 1.011,-0.379 2.022,-0.379c2.654,0 3.918,0.632 3.918,2.022c0,0.632 -2.907,4.423 -8.72,11.374c-5.94,6.951 -9.226,11.121 -9.858,12.511c7.709,-3.918 13.775,-5.94 18.325,-5.94c2.654,0 4.802,1.011 6.698,3.159c1.769,1.769 2.654,3.539 2.654,5.434l0,0.758c-0.632,4.802 -4.044,8.72 -10.11,11.88c-4.929,2.654 -9.478,3.918 -13.649,3.918c-4.17,0 -7.204,-0.506 -8.846,-1.643c-0.506,-0.126 -0.885,0 -1.137,0.379c-0.379,0.379 -0.379,0.758 -0.253,1.264c2.401,10.489 6.319,15.671 11.753,15.671c2.907,0 6.572,-1.643 11.121,-4.802c4.423,-3.159 9.099,-7.709 14.028,-13.522c0.632,-0.632 1.137,-0.885 1.643,-0.885c0.379,0 0.632,0.253 0.632,0.632c0,0.506 -0.253,1.137 -0.885,2.022c-4.55,5.561 -8.846,9.984 -12.891,13.143c-6.193,4.802 -11.374,7.204 -15.671,7.204Zm18.198,-38.672c0,-0.632 -0.379,-1.39 -1.137,-2.022c-0.758,-0.632 -1.517,-1.011 -2.401,-1.011c-4.55,0 -9.984,1.896 -16.303,5.687c-6.445,3.791 -10.363,8.088 -11.753,12.891c0.758,0 2.78,0.126 6.066,0.379c3.791,0 8.72,-1.517 14.913,-4.676c7.077,-3.539 10.616,-7.33 10.616,-11.248Z" style="fill:#fff;fill-rule:nonzero;"/></g><g><path d="M430.445,138.312c-0.885,0 -1.769,-0.126 -2.528,-0.379c-5.434,-1.517 -8.088,-4.55 -8.088,-9.099c0,-5.94 3.665,-12.764 11.121,-20.473c7.456,-7.709 14.028,-11.627 19.968,-11.627c1.896,0 3.539,0.506 4.802,1.517c1.137,1.137 1.769,2.401 1.769,3.918c0,4.676 -3.539,9.226 -10.616,13.522c-7.204,4.297 -13.017,6.445 -17.44,6.445c-0.632,0 -1.264,-0.126 -1.769,-0.253c-1.264,2.275 -1.896,4.676 -1.896,7.204c0,4.423 2.148,6.572 6.319,6.572c4.044,0 9.478,-2.78 16.176,-8.467c5.182,-4.17 9.478,-8.467 13.143,-13.143c0.758,-1.011 1.39,-1.517 2.022,-1.517c0.506,0 0.758,0.253 0.758,0.758c0,0.506 -0.379,1.264 -1.011,2.148c-4.55,5.94 -9.984,11.248 -16.429,15.924c-6.445,4.676 -11.88,6.951 -16.303,6.951Zm23.886,-36.397c0,-1.011 -1.011,-1.517 -3.159,-1.517c-2.148,0 -5.308,1.643 -9.226,4.929c-5.308,4.423 -9.478,8.973 -12.385,13.775c0.506,0.126 1.011,0.253 1.643,0.253c3.159,0 7.456,-1.769 12.891,-5.182c5.308,-3.286 8.594,-7.077 9.984,-11.121c0.126,-0.379 0.253,-0.758 0.253,-1.137Z" style="fill:#fff;fill-rule:nonzero;"/></g><g><path d="M508.042,74.87c0,2.654 -0.758,3.918 -2.275,3.918c-0.379,0 -0.885,-0.379 -1.264,-1.011c-0.758,-1.39 -2.022,-2.022 -3.791,-2.022c-3.918,0 -7.456,2.78 -10.869,8.341c-0.632,1.137 -2.78,5.055 -6.319,11.88l1.517,0c9.226,0 15.292,-0.126 18.325,-0.379c0.379,0.126 0.506,0.253 0.506,0.506c0,0.632 -3.033,1.643 -8.973,2.78c-5.687,0.885 -10.237,1.769 -13.902,2.401c-2.654,5.434 -5.813,11.753 -9.478,19.209c-7.583,14.154 -12.638,23.001 -15.039,26.413c-7.33,10.489 -14.534,15.671 -21.484,15.671c-2.401,0 -4.55,-1.011 -6.445,-3.033c-1.769,-2.148 -2.654,-4.423 -2.78,-6.951c0.253,-1.011 0.632,-1.517 1.137,-1.517c0.253,0 0.379,0.253 0.506,0.885c0.506,2.148 1.39,3.918 2.528,5.055c1.137,1.137 2.401,1.769 3.665,1.769c7.204,0 13.649,-4.423 19.589,-13.27c3.412,-5.055 7.962,-14.154 13.775,-27.298l6.824,-16.429c-8.467,-0.126 -12.638,-1.137 -12.638,-3.033c0,-0.885 0.379,-1.517 1.264,-2.148c0.758,-0.632 1.39,-0.885 2.022,-0.885l11.88,0.253c8.215,-18.325 15.797,-27.55 22.748,-27.55c2.654,0 5.308,1.264 7.962,3.791c0.632,0.632 1.011,1.517 1.011,2.654Z" style="fill:#fff;fill-rule:nonzero;"/></g><g><path d="M493.507,138.312c-0.885,0 -1.769,-0.126 -2.528,-0.379c-5.434,-1.517 -8.088,-4.55 -8.088,-9.099c0,-5.94 3.665,-12.764 11.121,-20.473c7.456,-7.709 14.028,-11.627 19.968,-11.627c1.896,0 3.539,0.506 4.802,1.517c1.137,1.137 1.769,2.401 1.769,3.918c0,4.676 -3.539,9.226 -10.616,13.522c-7.204,4.297 -13.017,6.445 -17.44,6.445c-0.632,0 -1.264,-0.126 -1.769,-0.253c-1.264,2.275 -1.896,4.676 -1.896,7.204c0,4.423 2.148,6.572 6.319,6.572c4.044,0 9.478,-2.78 16.176,-8.467c5.182,-4.17 9.478,-8.467 13.143,-13.143c0.758,-1.011 1.39,-1.517 2.022,-1.517c0.506,0 0.758,0.253 0.758,0.758c0,0.506 -0.379,1.264 -1.011,2.148c-4.55,5.94 -9.984,11.248 -16.429,15.924c-6.445,4.676 -11.88,6.951 -16.303,6.951Zm23.886,-36.397c0,-1.011 -1.011,-1.517 -3.159,-1.517c-2.148,0 -5.308,1.643 -9.226,4.929c-5.308,4.423 -9.478,8.973 -12.385,13.775c0.506,0.126 1.011,0.253 1.643,0.253c3.159,0 7.456,-1.769 12.891,-5.182c5.308,-3.286 8.594,-7.077 9.984,-11.121c0.126,-0.379 0.253,-0.758 0.253,-1.137Z" style="fill:#fff;fill-rule:nonzero;"/></g><g><path d="M524.47,130.35c0,2.528 1.39,3.791 4.17,3.791c2.78,0 6.319,-1.517 10.742,-4.423c4.423,-2.907 8.594,-6.951 12.764,-12.006c1.011,-1.39 1.769,-2.022 2.401,-2.022c0.632,0 0.885,0.253 0.885,0.758c0,0.506 -1.769,2.654 -5.182,6.572c-8.467,9.226 -15.418,13.902 -21.105,13.902c-2.78,0 -5.182,-0.632 -7.077,-2.022c-1.896,-1.264 -2.907,-3.286 -2.907,-6.066c0,-2.654 0.758,-5.813 2.148,-9.478c2.401,-5.687 6.319,-12.891 11.753,-21.611c9.858,-16.05 16.808,-24.012 20.979,-24.012c0.885,0 1.769,0.253 2.654,0.885c0.885,0.632 1.264,1.39 1.39,2.148c-1.896,2.654 -5.687,7.583 -11.121,15.039c-5.561,7.456 -9.352,12.764 -11.5,15.924c-2.148,3.286 -3.665,5.687 -4.676,7.33c-1.137,1.643 -1.896,2.78 -2.401,3.665c-0.506,0.885 -1.137,2.148 -1.769,3.539c-1.39,2.907 -2.148,5.561 -2.148,8.088Z" style="fill:#fff;fill-rule:nonzero;"/></g><g><path d="M555.179,130.35c0,2.528 1.39,3.791 4.17,3.791c2.78,0 6.319,-1.517 10.742,-4.423c4.423,-2.907 8.594,-6.951 12.764,-12.006c1.011,-1.39 1.769,-2.022 2.401,-2.022c0.632,0 0.885,0.253 0.885,0.758c0,0.506 -1.769,2.654 -5.182,6.572c-8.467,9.226 -15.418,13.902 -21.105,13.902c-2.78,0 -5.182,-0.632 -7.077,-2.022c-1.896,-1.264 -2.907,-3.286 -2.907,-6.066c0,-2.654 0.758,-5.813 2.148,-9.478c2.401,-5.687 6.319,-12.891 11.753,-21.611c9.858,-16.05 16.808,-24.012 20.979,-24.012c0.885,0 1.769,0.253 2.654,0.885c0.885,0.632 1.264,1.39 1.39,2.148c-1.896,2.654 -5.687,7.583 -11.121,15.039c-5.561,7.456 -9.352,12.764 -11.5,15.924c-2.148,3.286 -3.665,5.687 -4.676,7.33c-1.137,1.643 -1.896,2.78 -2.401,3.665c-0.506,0.885 -1.137,2.148 -1.769,3.539c-1.39,2.907 -2.148,5.561 -2.148,8.088Z" style="fill:#fff;fill-rule:nonzero;"/></g><g><path d="M587.407,138.312c-0.885,0 -1.769,-0.126 -2.528,-0.379c-5.434,-1.517 -8.088,-4.55 -8.088,-9.099c0,-5.94 3.665,-12.764 11.121,-20.473c7.456,-7.709 14.028,-11.627 19.968,-11.627c1.896,0 3.539,0.506 4.802,1.517c1.137,1.137 1.769,2.401 1.769,3.918c0,4.676 -3.539,9.226 -10.616,13.522c-7.204,4.297 -13.017,6.445 -17.44,6.445c-0.632,0 -1.264,-0.126 -1.769,-0.253c-1.264,2.275 -1.896,4.676 -1.896,7.204c0,4.423 2.148,6.572 6.319,6.572c4.044,0 9.478,-2.78 16.176,-8.467c5.182,-4.17 9.478,-8.467 13.143,-13.143c0.758,-1.011 1.39,-1.517 2.022,-1.517c0.506,0 0.758,0.253 0.758,0.758c0,0.506 -0.379,1.264 -1.011,2.148c-4.55,5.94 -9.984,11.248 -16.429,15.924c-6.445,4.676 -11.88,6.951 -16.303,6.951Zm23.886,-36.397c0,-1.011 -1.011,-1.517 -3.159,-1.517c-2.148,0 -5.308,1.643 -9.226,4.929c-5.308,4.423 -9.478,8.973 -12.385,13.775c0.506,0.126 1.011,0.253 1.643,0.253c3.159,0 7.456,-1.769 12.891,-5.182c5.308,-3.286 8.594,-7.077 9.984,-11.121c0.126,-0.379 0.253,-0.758 0.253,-1.137Z" style="fill:#fff;fill-rule:nonzero;"/></g><g><path d="M639.222,137.301c-6.319,0 -9.478,-3.539 -9.478,-10.489c0,-3.539 0.885,-7.456 2.78,-11.627c1.896,-4.17 3.918,-7.709 6.066,-10.616c-0.379,0.126 -1.011,0.126 -1.643,0.126c-2.022,0 -3.665,-1.39 -5.055,-4.297l-9.352,12.132c-5.182,6.445 -8.215,9.731 -9.099,9.731c-0.379,0 -0.632,-0.126 -0.632,-0.506c0,-0.885 0.758,-2.022 2.148,-3.665c7.33,-8.467 12.511,-15.671 15.545,-21.611c1.896,-7.33 4.423,-10.995 7.33,-10.995c1.896,0 2.907,0.885 2.907,2.528c0,1.643 -1.011,3.791 -3.159,6.445l-3.033,4.044c0,1.769 1.264,2.654 3.918,2.654c1.517,0 3.159,-0.506 5.055,-1.643l3.286,-2.022c0.126,-0.126 0.632,-0.126 1.264,-0.126c0.632,0 1.39,0.379 2.148,1.264c0.758,0.885 1.011,1.643 0.758,2.275l-8.72,10.995c-5.434,6.951 -8.088,12.385 -8.088,16.303c0,4.044 1.896,6.066 5.561,6.066c3.918,0 8.594,-2.022 14.281,-6.193c3.412,-2.401 6.445,-5.182 9.226,-8.215c2.654,-3.033 4.044,-4.55 4.297,-4.55c0.632,0 0.885,0.253 0.885,0.885c0,0.632 -0.379,1.39 -1.137,2.275l-4.044,4.55c-2.275,2.401 -4.802,4.676 -7.583,6.824c-6.698,4.929 -12.132,7.456 -16.429,7.456Z" style="fill:#fff;fill-rule:nonzero;"/></g></g></g></g></g></svg>