<?xml version="1.0" encoding="UTF-8" standalone="no"?>
<!DOCTYPE svg PUBLIC "-//W3C//DTD SVG 1.1//EN" "http://www.w3.org/Graphics/SVG/1.1/DTD/svg11.dtd">
<svg width="100%" height="100%" viewBox="0 0 160 50" version="1.1" xmlns="http://www.w3.org/2000/svg" xmlns:xlink="http://www.w3.org/1999/xlink" xml:space="preserve" xmlns:serif="http://www.serif.com/" style="fill-rule:evenodd;clip-rule:evenodd;stroke-linejoin:round;stroke-miterlimit:2;">
    <g id="Artboard1" transform="matrix(0.797222,0,0,0.25,0,0)">
        <rect x="0" y="0" width="200" height="200"/>
        <clipPath id="_clip1">
            <rect x="0" y="0" width="200" height="200"/>
        </clipPath>
        <g clip-path="url(#_clip1)">
            <g transform="matrix(0.70238,0,0,2.23981,30.7085,17.5612)">
                <g transform="matrix(75,0,0,75,46.4976,42.4095)">
                    <path d="M0.77,-0.189C0.77,-0.165 0.765,-0.142 0.754,-0.121C0.731,-0.073 0.688,-0.033 0.624,-0.001C0.56,0.031 0.493,0.047 0.424,0.047C0.319,0.047 0.247,0.011 0.209,-0.061C0.14,-0.004 0.091,0.025 0.062,0.025C0.057,0.025 0.052,0.024 0.048,0.022C0.028,0.011 0.018,-0.012 0.018,-0.047C0.018,-0.082 0.033,-0.126 0.062,-0.177C0.091,-0.228 0.117,-0.259 0.139,-0.268C0.149,-0.271 0.157,-0.273 0.162,-0.273C0.181,-0.273 0.196,-0.257 0.206,-0.225L0.236,-0.129C0.255,-0.15 0.282,-0.183 0.315,-0.228L0.404,-0.348C0.513,-0.49 0.585,-0.568 0.619,-0.581C0.631,-0.586 0.643,-0.588 0.656,-0.588C0.669,-0.588 0.679,-0.585 0.688,-0.58C0.696,-0.575 0.7,-0.568 0.7,-0.56C0.7,-0.548 0.69,-0.541 0.671,-0.539C0.651,-0.528 0.613,-0.495 0.557,-0.44C0.5,-0.385 0.467,-0.35 0.456,-0.335C0.381,-0.231 0.312,-0.151 0.249,-0.095C0.29,-0.014 0.351,0.026 0.432,0.026C0.481,0.026 0.53,0.011 0.579,-0.021C0.628,-0.051 0.664,-0.09 0.688,-0.135C0.699,-0.154 0.704,-0.176 0.704,-0.2C0.704,-0.224 0.695,-0.247 0.676,-0.269C0.657,-0.29 0.633,-0.306 0.604,-0.316C0.591,-0.318 0.569,-0.321 0.54,-0.325C0.511,-0.328 0.496,-0.334 0.496,-0.343C0.496,-0.346 0.497,-0.349 0.5,-0.352C0.508,-0.361 0.518,-0.366 0.531,-0.366C0.538,-0.366 0.546,-0.365 0.553,-0.362C0.56,-0.359 0.578,-0.353 0.583,-0.351C0.598,-0.35 0.61,-0.349 0.621,-0.349C0.665,-0.349 0.705,-0.356 0.741,-0.37C0.787,-0.388 0.816,-0.415 0.829,-0.451C0.837,-0.474 0.841,-0.495 0.841,-0.514C0.841,-0.56 0.819,-0.594 0.774,-0.617C0.735,-0.637 0.682,-0.647 0.615,-0.647C0.509,-0.647 0.414,-0.627 0.33,-0.587C0.287,-0.567 0.247,-0.537 0.209,-0.498C0.17,-0.459 0.151,-0.425 0.151,-0.397C0.151,-0.378 0.156,-0.362 0.166,-0.349C0.17,-0.344 0.177,-0.337 0.187,-0.329C0.19,-0.327 0.188,-0.326 0.181,-0.326C0.14,-0.335 0.119,-0.363 0.119,-0.409C0.119,-0.455 0.142,-0.498 0.189,-0.539C0.224,-0.569 0.263,-0.593 0.306,-0.612C0.396,-0.651 0.498,-0.67 0.613,-0.67C0.695,-0.67 0.76,-0.658 0.809,-0.634C0.866,-0.607 0.894,-0.567 0.894,-0.513C0.894,-0.492 0.89,-0.47 0.881,-0.448C0.867,-0.408 0.831,-0.378 0.772,-0.357C0.728,-0.342 0.681,-0.334 0.63,-0.333C0.669,-0.331 0.703,-0.317 0.73,-0.29C0.756,-0.263 0.77,-0.229 0.77,-0.189ZM0.131,-0.226C0.13,-0.226 0.129,-0.225 0.126,-0.224C0.077,-0.153 0.052,-0.095 0.052,-0.052C0.052,-0.034 0.056,-0.018 0.065,-0.003C0.067,0 0.07,0.002 0.075,0.002C0.096,0.002 0.137,-0.028 0.198,-0.089L0.195,-0.093C0.168,-0.182 0.147,-0.226 0.131,-0.226Z" style="fill:rgb(147,149,152);fill-rule:nonzero;"/>
                </g>
            </g>
            <g transform="matrix(0.70238,0,0,2.23981,25.6002,-51.4049)">
                <g transform="matrix(75,0,0,75,78.2339,103.844)">
                    <path d="M0.572,-0.27C0.539,-0.27 0.508,-0.273 0.479,-0.278C0.488,-0.249 0.508,-0.182 0.538,-0.079C0.547,-0.049 0.562,-0.019 0.582,0.012C0.609,0.051 0.635,0.071 0.658,0.071C0.686,0.071 0.709,0.043 0.728,-0.014C0.731,-0.027 0.735,-0.034 0.739,-0.034C0.742,-0.034 0.745,-0.03 0.747,-0.023C0.748,-0.015 0.749,-0.01 0.749,-0.007C0.749,0.01 0.74,0.031 0.721,0.057C0.696,0.094 0.669,0.112 0.64,0.112C0.611,0.112 0.584,0.097 0.559,0.068C0.534,0.039 0.51,-0.015 0.487,-0.093C0.463,-0.17 0.451,-0.22 0.451,-0.241C0.451,-0.244 0.451,-0.247 0.452,-0.249C0.372,-0.143 0.315,-0.073 0.28,-0.039C0.203,0.036 0.124,0.074 0.043,0.074C-0.014,0.074 -0.042,0.053 -0.042,0.01C-0.042,-0.011 -0.035,-0.035 -0.022,-0.061C-0.009,-0.086 0.008,-0.109 0.027,-0.128C0.046,-0.147 0.063,-0.157 0.078,-0.157C0.081,-0.157 0.082,-0.156 0.082,-0.155C0.082,-0.152 0.074,-0.143 0.057,-0.13C0.04,-0.117 0.024,-0.098 0.009,-0.074C-0.006,-0.049 -0.014,-0.027 -0.014,-0.007C-0.014,0.028 0.01,0.046 0.057,0.046C0.146,0.046 0.268,-0.058 0.423,-0.266C0.432,-0.277 0.439,-0.285 0.445,-0.29L0.429,-0.296C0.42,-0.293 0.413,-0.291 0.408,-0.291C0.394,-0.291 0.387,-0.297 0.387,-0.308C0.387,-0.323 0.397,-0.333 0.418,-0.338C0.421,-0.339 0.423,-0.339 0.425,-0.339C0.437,-0.339 0.451,-0.333 0.467,-0.321C0.526,-0.386 0.556,-0.42 0.557,-0.421C0.606,-0.471 0.639,-0.496 0.656,-0.496C0.673,-0.496 0.681,-0.489 0.681,-0.474C0.681,-0.467 0.68,-0.461 0.677,-0.455C0.674,-0.449 0.67,-0.446 0.666,-0.446C0.662,-0.445 0.66,-0.447 0.66,-0.452C0.66,-0.455 0.662,-0.459 0.666,-0.464C0.667,-0.473 0.664,-0.478 0.657,-0.478C0.636,-0.478 0.584,-0.421 0.502,-0.308C0.522,-0.307 0.539,-0.306 0.552,-0.306C0.707,-0.306 0.803,-0.346 0.842,-0.426C0.85,-0.443 0.854,-0.459 0.854,-0.474C0.854,-0.503 0.841,-0.529 0.814,-0.55C0.771,-0.585 0.702,-0.602 0.606,-0.602C0.51,-0.602 0.412,-0.578 0.312,-0.529C0.191,-0.47 0.13,-0.4 0.13,-0.32C0.13,-0.294 0.146,-0.281 0.179,-0.281C0.212,-0.281 0.246,-0.293 0.283,-0.317C0.32,-0.341 0.344,-0.365 0.357,-0.388C0.362,-0.397 0.366,-0.401 0.371,-0.401C0.375,-0.401 0.376,-0.398 0.374,-0.393C0.361,-0.356 0.333,-0.324 0.29,-0.298C0.246,-0.271 0.2,-0.258 0.153,-0.258C0.106,-0.258 0.082,-0.273 0.082,-0.303L0.082,-0.31C0.092,-0.397 0.146,-0.471 0.243,-0.533C0.339,-0.594 0.456,-0.624 0.593,-0.624C0.72,-0.624 0.811,-0.602 0.864,-0.558C0.896,-0.531 0.912,-0.5 0.912,-0.464C0.912,-0.449 0.908,-0.432 0.901,-0.414C0.88,-0.365 0.838,-0.329 0.774,-0.306C0.71,-0.282 0.643,-0.27 0.572,-0.27Z" style="fill:rgb(147,149,152);fill-rule:nonzero;"/>
                </g>
            </g>
            <g transform="matrix(0.70238,0,0,2.23981,-15.1254,-96.3085)">
                <g transform="matrix(54.1667,0,0,54.1667,20.5595,101.576)">
                    <path d="M0.77,-0.189C0.77,-0.165 0.765,-0.142 0.754,-0.121C0.731,-0.073 0.688,-0.033 0.624,-0.001C0.56,0.031 0.493,0.047 0.424,0.047C0.319,0.047 0.247,0.011 0.209,-0.061C0.14,-0.004 0.091,0.025 0.062,0.025C0.057,0.025 0.052,0.024 0.048,0.022C0.028,0.011 0.018,-0.012 0.018,-0.047C0.018,-0.082 0.033,-0.126 0.062,-0.177C0.091,-0.228 0.117,-0.259 0.139,-0.268C0.149,-0.271 0.157,-0.273 0.162,-0.273C0.181,-0.273 0.196,-0.257 0.206,-0.225L0.236,-0.129C0.255,-0.15 0.282,-0.183 0.315,-0.228L0.404,-0.348C0.513,-0.49 0.585,-0.568 0.619,-0.581C0.631,-0.586 0.643,-0.588 0.656,-0.588C0.669,-0.588 0.679,-0.585 0.688,-0.58C0.696,-0.575 0.7,-0.568 0.7,-0.56C0.7,-0.548 0.69,-0.541 0.671,-0.539C0.651,-0.528 0.613,-0.495 0.557,-0.44C0.5,-0.385 0.467,-0.35 0.456,-0.335C0.381,-0.231 0.312,-0.151 0.249,-0.095C0.29,-0.014 0.351,0.026 0.432,0.026C0.481,0.026 0.53,0.011 0.579,-0.021C0.628,-0.051 0.664,-0.09 0.688,-0.135C0.699,-0.154 0.704,-0.176 0.704,-0.2C0.704,-0.224 0.695,-0.247 0.676,-0.269C0.657,-0.29 0.633,-0.306 0.604,-0.316C0.591,-0.318 0.569,-0.321 0.54,-0.325C0.511,-0.328 0.496,-0.334 0.496,-0.343C0.496,-0.346 0.497,-0.349 0.5,-0.352C0.508,-0.361 0.518,-0.366 0.531,-0.366C0.538,-0.366 0.546,-0.365 0.553,-0.362C0.56,-0.359 0.578,-0.353 0.583,-0.351C0.598,-0.35 0.61,-0.349 0.621,-0.349C0.665,-0.349 0.705,-0.356 0.741,-0.37C0.787,-0.388 0.816,-0.415 0.829,-0.451C0.837,-0.474 0.841,-0.495 0.841,-0.514C0.841,-0.56 0.819,-0.594 0.774,-0.617C0.735,-0.637 0.682,-0.647 0.615,-0.647C0.509,-0.647 0.414,-0.627 0.33,-0.587C0.287,-0.567 0.247,-0.537 0.209,-0.498C0.17,-0.459 0.151,-0.425 0.151,-0.397C0.151,-0.378 0.156,-0.362 0.166,-0.349C0.17,-0.344 0.177,-0.337 0.187,-0.329C0.19,-0.327 0.188,-0.326 0.181,-0.326C0.14,-0.335 0.119,-0.363 0.119,-0.409C0.119,-0.455 0.142,-0.498 0.189,-0.539C0.224,-0.569 0.263,-0.593 0.306,-0.612C0.396,-0.651 0.498,-0.67 0.613,-0.67C0.695,-0.67 0.76,-0.658 0.809,-0.634C0.866,-0.607 0.894,-0.567 0.894,-0.513C0.894,-0.492 0.89,-0.47 0.881,-0.448C0.867,-0.408 0.831,-0.378 0.772,-0.357C0.728,-0.342 0.681,-0.334 0.63,-0.333C0.669,-0.331 0.703,-0.317 0.73,-0.29C0.756,-0.263 0.77,-0.229 0.77,-0.189ZM0.131,-0.226C0.13,-0.226 0.129,-0.225 0.126,-0.224C0.077,-0.153 0.052,-0.095 0.052,-0.052C0.052,-0.034 0.056,-0.018 0.065,-0.003C0.067,0 0.07,0.002 0.075,0.002C0.096,0.002 0.137,-0.028 0.198,-0.089L0.195,-0.093C0.168,-0.182 0.147,-0.226 0.131,-0.226Z" style="fill:white;fill-rule:nonzero;"/>
                </g>
                <g transform="matrix(54.1667,0,0,54.1667,64.922,101.576)">
                    <path d="M0.261,-0.212C0.261,-0.189 0.239,-0.15 0.194,-0.095C0.141,-0.03 0.096,0.002 0.059,0.002L0.043,0.002C0.026,0.002 0.012,-0.007 0.002,-0.025C-0.006,-0.038 -0.01,-0.052 -0.01,-0.067C-0.01,-0.107 0.019,-0.163 0.078,-0.236C0.136,-0.308 0.183,-0.344 0.219,-0.344C0.253,-0.344 0.27,-0.326 0.27,-0.29C0.27,-0.281 0.268,-0.269 0.265,-0.254C0.266,-0.252 0.272,-0.251 0.284,-0.251C0.296,-0.251 0.314,-0.257 0.339,-0.27C0.338,-0.259 0.312,-0.242 0.26,-0.221C0.261,-0.218 0.261,-0.215 0.261,-0.212ZM0.196,-0.264C0.173,-0.264 0.141,-0.237 0.1,-0.184C0.058,-0.131 0.037,-0.091 0.037,-0.066C0.037,-0.041 0.045,-0.028 0.061,-0.028C0.09,-0.028 0.126,-0.054 0.17,-0.106C0.214,-0.158 0.236,-0.195 0.236,-0.218C0.225,-0.224 0.212,-0.239 0.196,-0.264Z" style="fill:white;fill-rule:nonzero;"/>
                </g>
                <g transform="matrix(54.1667,0,0,54.1667,80.1428,101.576)">
                    <path d="M0.228,-0.249C0.228,-0.294 0.242,-0.317 0.27,-0.317C0.273,-0.317 0.276,-0.317 0.279,-0.316C0.29,-0.314 0.296,-0.305 0.296,-0.29C0.296,-0.275 0.293,-0.255 0.288,-0.232C0.283,-0.215 0.279,-0.202 0.277,-0.193C0.279,-0.182 0.285,-0.167 0.294,-0.15C0.303,-0.132 0.315,-0.123 0.331,-0.123C0.346,-0.123 0.364,-0.134 0.383,-0.155C0.387,-0.16 0.391,-0.162 0.395,-0.162C0.398,-0.162 0.4,-0.16 0.401,-0.156C0.401,-0.151 0.398,-0.145 0.393,-0.138C0.372,-0.113 0.351,-0.101 0.328,-0.101C0.295,-0.101 0.269,-0.125 0.249,-0.173C0.228,-0.126 0.199,-0.085 0.161,-0.051C0.123,-0.016 0.085,0.001 0.048,0.001C0.013,0.001 -0.005,-0.026 -0.005,-0.079C-0.005,-0.121 0.034,-0.198 0.113,-0.311C0.191,-0.424 0.251,-0.48 0.292,-0.48C0.301,-0.48 0.309,-0.477 0.316,-0.472C0.323,-0.467 0.326,-0.46 0.326,-0.453C0.326,-0.454 0.321,-0.449 0.312,-0.438C0.302,-0.427 0.276,-0.399 0.233,-0.352C0.19,-0.305 0.147,-0.254 0.106,-0.198C0.065,-0.142 0.044,-0.099 0.044,-0.068C0.044,-0.06 0.046,-0.051 0.051,-0.042C0.055,-0.033 0.062,-0.028 0.072,-0.028C0.101,-0.028 0.136,-0.051 0.175,-0.096C0.208,-0.136 0.228,-0.17 0.235,-0.197C0.23,-0.211 0.228,-0.228 0.228,-0.249Z" style="fill:white;fill-rule:nonzero;"/>
                </g>
                <g transform="matrix(54.1667,0,0,54.1667,110.639,101.576)">
                    <path d="M0.572,-0.27C0.539,-0.27 0.508,-0.273 0.479,-0.278C0.488,-0.249 0.508,-0.182 0.538,-0.079C0.547,-0.049 0.562,-0.019 0.582,0.012C0.609,0.051 0.635,0.071 0.658,0.071C0.686,0.071 0.709,0.043 0.728,-0.014C0.731,-0.027 0.735,-0.034 0.739,-0.034C0.742,-0.034 0.745,-0.03 0.747,-0.023C0.748,-0.015 0.749,-0.01 0.749,-0.007C0.749,0.01 0.74,0.031 0.721,0.057C0.696,0.094 0.669,0.112 0.64,0.112C0.611,0.112 0.584,0.097 0.559,0.068C0.534,0.039 0.51,-0.015 0.487,-0.093C0.463,-0.17 0.451,-0.22 0.451,-0.241C0.451,-0.244 0.451,-0.247 0.452,-0.249C0.372,-0.143 0.315,-0.073 0.28,-0.039C0.203,0.036 0.124,0.074 0.043,0.074C-0.014,0.074 -0.042,0.053 -0.042,0.01C-0.042,-0.011 -0.035,-0.035 -0.022,-0.061C-0.009,-0.086 0.008,-0.109 0.027,-0.128C0.046,-0.147 0.063,-0.157 0.078,-0.157C0.081,-0.157 0.082,-0.156 0.082,-0.155C0.082,-0.152 0.074,-0.143 0.057,-0.13C0.04,-0.117 0.024,-0.098 0.009,-0.074C-0.006,-0.049 -0.014,-0.027 -0.014,-0.007C-0.014,0.028 0.01,0.046 0.057,0.046C0.146,0.046 0.268,-0.058 0.423,-0.266C0.432,-0.277 0.439,-0.285 0.445,-0.29L0.429,-0.296C0.42,-0.293 0.413,-0.291 0.408,-0.291C0.394,-0.291 0.387,-0.297 0.387,-0.308C0.387,-0.323 0.397,-0.333 0.418,-0.338C0.421,-0.339 0.423,-0.339 0.425,-0.339C0.437,-0.339 0.451,-0.333 0.467,-0.321C0.526,-0.386 0.556,-0.42 0.557,-0.421C0.606,-0.471 0.639,-0.496 0.656,-0.496C0.673,-0.496 0.681,-0.489 0.681,-0.474C0.681,-0.467 0.68,-0.461 0.677,-0.455C0.674,-0.449 0.67,-0.446 0.666,-0.446C0.662,-0.445 0.66,-0.447 0.66,-0.452C0.66,-0.455 0.662,-0.459 0.666,-0.464C0.667,-0.473 0.664,-0.478 0.657,-0.478C0.636,-0.478 0.584,-0.421 0.502,-0.308C0.522,-0.307 0.539,-0.306 0.552,-0.306C0.707,-0.306 0.803,-0.346 0.842,-0.426C0.85,-0.443 0.854,-0.459 0.854,-0.474C0.854,-0.503 0.841,-0.529 0.814,-0.55C0.771,-0.585 0.702,-0.602 0.606,-0.602C0.51,-0.602 0.412,-0.578 0.312,-0.529C0.191,-0.47 0.13,-0.4 0.13,-0.32C0.13,-0.294 0.146,-0.281 0.179,-0.281C0.212,-0.281 0.246,-0.293 0.283,-0.317C0.32,-0.341 0.344,-0.365 0.357,-0.388C0.362,-0.397 0.366,-0.401 0.371,-0.401C0.375,-0.401 0.376,-0.398 0.374,-0.393C0.361,-0.356 0.333,-0.324 0.29,-0.298C0.246,-0.271 0.2,-0.258 0.153,-0.258C0.106,-0.258 0.082,-0.273 0.082,-0.303L0.082,-0.31C0.092,-0.397 0.146,-0.471 0.243,-0.533C0.339,-0.594 0.456,-0.624 0.593,-0.624C0.72,-0.624 0.811,-0.602 0.864,-0.558C0.896,-0.531 0.912,-0.5 0.912,-0.464C0.912,-0.449 0.908,-0.432 0.901,-0.414C0.88,-0.365 0.838,-0.329 0.774,-0.306C0.71,-0.282 0.643,-0.27 0.572,-0.27Z" style="fill:white;fill-rule:nonzero;"/>
                </g>
                <g transform="matrix(54.1667,0,0,54.1667,151.372,101.576)">
                    <path d="M0.261,-0.212C0.261,-0.189 0.239,-0.15 0.194,-0.095C0.141,-0.03 0.096,0.002 0.059,0.002L0.043,0.002C0.026,0.002 0.012,-0.007 0.002,-0.025C-0.006,-0.038 -0.01,-0.052 -0.01,-0.067C-0.01,-0.107 0.019,-0.163 0.078,-0.236C0.136,-0.308 0.183,-0.344 0.219,-0.344C0.253,-0.344 0.27,-0.326 0.27,-0.29C0.27,-0.281 0.268,-0.269 0.265,-0.254C0.266,-0.252 0.272,-0.251 0.284,-0.251C0.296,-0.251 0.314,-0.257 0.339,-0.27C0.338,-0.259 0.312,-0.242 0.26,-0.221C0.261,-0.218 0.261,-0.215 0.261,-0.212ZM0.196,-0.264C0.173,-0.264 0.141,-0.237 0.1,-0.184C0.058,-0.131 0.037,-0.091 0.037,-0.066C0.037,-0.041 0.045,-0.028 0.061,-0.028C0.09,-0.028 0.126,-0.054 0.17,-0.106C0.214,-0.158 0.236,-0.195 0.236,-0.218C0.225,-0.224 0.212,-0.239 0.196,-0.264Z" style="fill:white;fill-rule:nonzero;"/>
                </g>
                <g transform="matrix(54.1667,0,0,54.1667,166.593,101.576)">
                    <path d="M0.076,0.013C0.069,0.013 0.062,0.012 0.056,0.01C0.013,-0.002 -0.008,-0.026 -0.008,-0.062C-0.008,-0.109 0.021,-0.163 0.08,-0.224C0.139,-0.285 0.191,-0.316 0.238,-0.316C0.253,-0.316 0.266,-0.312 0.276,-0.304C0.285,-0.295 0.29,-0.284 0.29,-0.27C0.29,-0.255 0.286,-0.24 0.277,-0.225C0.268,-0.209 0.255,-0.201 0.238,-0.201C0.221,-0.201 0.212,-0.206 0.212,-0.217C0.212,-0.224 0.217,-0.236 0.226,-0.251C0.235,-0.266 0.239,-0.274 0.239,-0.275C0.239,-0.276 0.238,-0.276 0.236,-0.276C0.217,-0.274 0.192,-0.261 0.16,-0.236C0.127,-0.211 0.105,-0.191 0.093,-0.174L0.054,-0.117C0.047,-0.106 0.043,-0.094 0.04,-0.079C0.037,-0.064 0.035,-0.053 0.035,-0.046C0.035,-0.039 0.039,-0.03 0.048,-0.021C0.056,-0.012 0.068,-0.007 0.083,-0.007C0.116,-0.007 0.158,-0.027 0.207,-0.066C0.256,-0.105 0.294,-0.142 0.321,-0.177C0.324,-0.181 0.328,-0.183 0.333,-0.183C0.338,-0.183 0.34,-0.182 0.34,-0.179C0.34,-0.176 0.338,-0.173 0.335,-0.169C0.298,-0.12 0.255,-0.078 0.204,-0.042C0.153,-0.005 0.11,0.013 0.076,0.013Z" style="fill:white;fill-rule:nonzero;"/>
                </g>
                <g transform="matrix(54.1667,0,0,54.1667,181.922,101.576)">
                    <path d="M0.205,0.012C0.152,0.012 0.108,-0.03 0.071,-0.113C0.062,-0.099 0.041,-0.06 0.008,0.005C-0.016,-0.004 -0.028,-0.017 -0.028,-0.033C-0.028,-0.062 0.015,-0.14 0.101,-0.269C0.187,-0.398 0.246,-0.473 0.278,-0.496C0.281,-0.498 0.286,-0.499 0.294,-0.499C0.315,-0.499 0.325,-0.494 0.325,-0.483C0.325,-0.478 0.302,-0.448 0.256,-0.393C0.209,-0.338 0.183,-0.305 0.178,-0.294C0.239,-0.325 0.287,-0.341 0.323,-0.341C0.344,-0.341 0.361,-0.333 0.376,-0.316C0.39,-0.302 0.397,-0.288 0.397,-0.273L0.397,-0.267C0.392,-0.229 0.365,-0.198 0.317,-0.173C0.278,-0.152 0.242,-0.142 0.209,-0.142C0.176,-0.142 0.152,-0.146 0.139,-0.155C0.135,-0.156 0.132,-0.155 0.13,-0.152C0.127,-0.149 0.127,-0.146 0.128,-0.142C0.147,-0.059 0.178,-0.018 0.221,-0.018C0.244,-0.018 0.273,-0.031 0.309,-0.056C0.344,-0.081 0.381,-0.117 0.42,-0.163C0.425,-0.168 0.429,-0.17 0.433,-0.17C0.436,-0.17 0.438,-0.168 0.438,-0.165C0.438,-0.161 0.436,-0.156 0.431,-0.149C0.395,-0.105 0.361,-0.07 0.329,-0.045C0.28,-0.007 0.239,0.012 0.205,0.012ZM0.349,-0.294C0.349,-0.299 0.346,-0.305 0.34,-0.31C0.334,-0.315 0.328,-0.318 0.321,-0.318C0.285,-0.318 0.242,-0.303 0.192,-0.273C0.141,-0.243 0.11,-0.209 0.099,-0.171C0.105,-0.171 0.121,-0.17 0.147,-0.168C0.177,-0.168 0.216,-0.18 0.265,-0.205C0.321,-0.233 0.349,-0.263 0.349,-0.294Z" style="fill:white;fill-rule:nonzero;"/>
                </g>
                <g transform="matrix(54.1667,0,0,54.1667,203.264,101.576)">
                    <path d="M0.051,0.013C0.044,0.013 0.037,0.012 0.031,0.01C-0.012,-0.002 -0.033,-0.026 -0.033,-0.062C-0.033,-0.109 -0.004,-0.163 0.055,-0.224C0.114,-0.285 0.166,-0.316 0.213,-0.316C0.228,-0.316 0.241,-0.312 0.251,-0.304C0.26,-0.295 0.265,-0.285 0.265,-0.273C0.265,-0.236 0.237,-0.2 0.181,-0.166C0.124,-0.132 0.078,-0.115 0.043,-0.115C0.038,-0.115 0.033,-0.116 0.029,-0.117C0.019,-0.099 0.014,-0.08 0.014,-0.06C0.014,-0.025 0.031,-0.008 0.064,-0.008C0.096,-0.008 0.139,-0.03 0.192,-0.075C0.233,-0.108 0.267,-0.142 0.296,-0.179C0.302,-0.187 0.307,-0.191 0.312,-0.191C0.316,-0.191 0.318,-0.189 0.318,-0.185C0.318,-0.181 0.315,-0.175 0.31,-0.168C0.274,-0.121 0.231,-0.079 0.18,-0.042C0.129,-0.005 0.086,0.013 0.051,0.013ZM0.24,-0.275C0.24,-0.283 0.232,-0.287 0.215,-0.287C0.198,-0.287 0.173,-0.274 0.142,-0.248C0.1,-0.213 0.067,-0.177 0.044,-0.139C0.048,-0.138 0.052,-0.137 0.057,-0.137C0.082,-0.137 0.116,-0.151 0.159,-0.178C0.201,-0.204 0.227,-0.234 0.238,-0.266C0.239,-0.269 0.24,-0.272 0.24,-0.275Z" style="fill:white;fill-rule:nonzero;"/>
                </g>
                <g transform="matrix(54.1667,0,0,54.1667,217.185,101.576)">
                    <path d="M0.408,-0.489C0.408,-0.468 0.402,-0.458 0.39,-0.458C0.387,-0.458 0.383,-0.461 0.38,-0.466C0.374,-0.477 0.364,-0.482 0.35,-0.482C0.319,-0.482 0.291,-0.46 0.264,-0.416C0.259,-0.407 0.242,-0.376 0.214,-0.322L0.226,-0.322C0.299,-0.322 0.347,-0.323 0.371,-0.325C0.374,-0.324 0.375,-0.323 0.375,-0.321C0.375,-0.316 0.351,-0.308 0.304,-0.299C0.259,-0.292 0.223,-0.285 0.194,-0.28C0.173,-0.237 0.148,-0.187 0.119,-0.128C0.059,-0.016 0.019,0.054 0,0.081C-0.058,0.164 -0.115,0.205 -0.17,0.205C-0.189,0.205 -0.206,0.197 -0.221,0.181C-0.235,0.164 -0.242,0.146 -0.243,0.126C-0.241,0.118 -0.238,0.114 -0.234,0.114C-0.232,0.114 -0.231,0.116 -0.23,0.121C-0.226,0.138 -0.219,0.152 -0.21,0.161C-0.201,0.17 -0.191,0.175 -0.181,0.175C-0.124,0.175 -0.073,0.14 -0.026,0.07C0.001,0.03 0.037,-0.042 0.083,-0.146L0.137,-0.276C0.07,-0.277 0.037,-0.285 0.037,-0.3C0.037,-0.307 0.04,-0.312 0.047,-0.317C0.053,-0.322 0.058,-0.324 0.063,-0.324L0.157,-0.322C0.222,-0.467 0.282,-0.54 0.337,-0.54C0.358,-0.54 0.379,-0.53 0.4,-0.51C0.405,-0.505 0.408,-0.498 0.408,-0.489Z" style="fill:white;fill-rule:nonzero;"/>
                </g>
                <g transform="matrix(54.1667,0,0,54.1667,230.293,101.576)">
                    <path d="M0.051,0.013C0.044,0.013 0.037,0.012 0.031,0.01C-0.012,-0.002 -0.033,-0.026 -0.033,-0.062C-0.033,-0.109 -0.004,-0.163 0.055,-0.224C0.114,-0.285 0.166,-0.316 0.213,-0.316C0.228,-0.316 0.241,-0.312 0.251,-0.304C0.26,-0.295 0.265,-0.285 0.265,-0.273C0.265,-0.236 0.237,-0.2 0.181,-0.166C0.124,-0.132 0.078,-0.115 0.043,-0.115C0.038,-0.115 0.033,-0.116 0.029,-0.117C0.019,-0.099 0.014,-0.08 0.014,-0.06C0.014,-0.025 0.031,-0.008 0.064,-0.008C0.096,-0.008 0.139,-0.03 0.192,-0.075C0.233,-0.108 0.267,-0.142 0.296,-0.179C0.302,-0.187 0.307,-0.191 0.312,-0.191C0.316,-0.191 0.318,-0.189 0.318,-0.185C0.318,-0.181 0.315,-0.175 0.31,-0.168C0.274,-0.121 0.231,-0.079 0.18,-0.042C0.129,-0.005 0.086,0.013 0.051,0.013ZM0.24,-0.275C0.24,-0.283 0.232,-0.287 0.215,-0.287C0.198,-0.287 0.173,-0.274 0.142,-0.248C0.1,-0.213 0.067,-0.177 0.044,-0.139C0.048,-0.138 0.052,-0.137 0.057,-0.137C0.082,-0.137 0.116,-0.151 0.159,-0.178C0.201,-0.204 0.227,-0.234 0.238,-0.266C0.239,-0.269 0.24,-0.272 0.24,-0.275Z" style="fill:white;fill-rule:nonzero;"/>
                </g>
                <g transform="matrix(54.1667,0,0,54.1667,244.214,101.576)">
                    <path d="M0.039,-0.05C0.039,-0.03 0.05,-0.02 0.072,-0.02C0.094,-0.02 0.122,-0.032 0.157,-0.055C0.192,-0.078 0.225,-0.11 0.258,-0.15C0.266,-0.161 0.272,-0.166 0.277,-0.166C0.282,-0.166 0.284,-0.164 0.284,-0.16C0.284,-0.156 0.27,-0.139 0.243,-0.108C0.176,-0.035 0.121,0.002 0.076,0.002C0.054,0.002 0.035,-0.003 0.02,-0.014C0.005,-0.024 -0.003,-0.04 -0.003,-0.062C-0.003,-0.083 0.003,-0.108 0.014,-0.137C0.033,-0.182 0.064,-0.239 0.107,-0.308C0.185,-0.435 0.24,-0.498 0.273,-0.498C0.28,-0.498 0.287,-0.496 0.294,-0.491C0.301,-0.486 0.304,-0.48 0.305,-0.474C0.29,-0.453 0.26,-0.414 0.217,-0.355C0.173,-0.296 0.143,-0.254 0.126,-0.229C0.109,-0.203 0.097,-0.184 0.089,-0.171C0.08,-0.158 0.074,-0.149 0.07,-0.142C0.066,-0.135 0.061,-0.125 0.056,-0.114C0.045,-0.091 0.039,-0.07 0.039,-0.05Z" style="fill:white;fill-rule:nonzero;"/>
                </g>
                <g transform="matrix(54.1667,0,0,54.1667,257.376,101.576)">
                    <path d="M0.039,-0.05C0.039,-0.03 0.05,-0.02 0.072,-0.02C0.094,-0.02 0.122,-0.032 0.157,-0.055C0.192,-0.078 0.225,-0.11 0.258,-0.15C0.266,-0.161 0.272,-0.166 0.277,-0.166C0.282,-0.166 0.284,-0.164 0.284,-0.16C0.284,-0.156 0.27,-0.139 0.243,-0.108C0.176,-0.035 0.121,0.002 0.076,0.002C0.054,0.002 0.035,-0.003 0.02,-0.014C0.005,-0.024 -0.003,-0.04 -0.003,-0.062C-0.003,-0.083 0.003,-0.108 0.014,-0.137C0.033,-0.182 0.064,-0.239 0.107,-0.308C0.185,-0.435 0.24,-0.498 0.273,-0.498C0.28,-0.498 0.287,-0.496 0.294,-0.491C0.301,-0.486 0.304,-0.48 0.305,-0.474C0.29,-0.453 0.26,-0.414 0.217,-0.355C0.173,-0.296 0.143,-0.254 0.126,-0.229C0.109,-0.203 0.097,-0.184 0.089,-0.171C0.08,-0.158 0.074,-0.149 0.07,-0.142C0.066,-0.135 0.061,-0.125 0.056,-0.114C0.045,-0.091 0.039,-0.07 0.039,-0.05Z" style="fill:white;fill-rule:nonzero;"/>
                </g>
                <g transform="matrix(54.1667,0,0,54.1667,270.539,101.576)">
                    <path d="M0.051,0.013C0.044,0.013 0.037,0.012 0.031,0.01C-0.012,-0.002 -0.033,-0.026 -0.033,-0.062C-0.033,-0.109 -0.004,-0.163 0.055,-0.224C0.114,-0.285 0.166,-0.316 0.213,-0.316C0.228,-0.316 0.241,-0.312 0.251,-0.304C0.26,-0.295 0.265,-0.285 0.265,-0.273C0.265,-0.236 0.237,-0.2 0.181,-0.166C0.124,-0.132 0.078,-0.115 0.043,-0.115C0.038,-0.115 0.033,-0.116 0.029,-0.117C0.019,-0.099 0.014,-0.08 0.014,-0.06C0.014,-0.025 0.031,-0.008 0.064,-0.008C0.096,-0.008 0.139,-0.03 0.192,-0.075C0.233,-0.108 0.267,-0.142 0.296,-0.179C0.302,-0.187 0.307,-0.191 0.312,-0.191C0.316,-0.191 0.318,-0.189 0.318,-0.185C0.318,-0.181 0.315,-0.175 0.31,-0.168C0.274,-0.121 0.231,-0.079 0.18,-0.042C0.129,-0.005 0.086,0.013 0.051,0.013ZM0.24,-0.275C0.24,-0.283 0.232,-0.287 0.215,-0.287C0.198,-0.287 0.173,-0.274 0.142,-0.248C0.1,-0.213 0.067,-0.177 0.044,-0.139C0.048,-0.138 0.052,-0.137 0.057,-0.137C0.082,-0.137 0.116,-0.151 0.159,-0.178C0.201,-0.204 0.227,-0.234 0.238,-0.266C0.239,-0.269 0.24,-0.272 0.24,-0.275Z" style="fill:white;fill-rule:nonzero;"/>
                </g>
                <g transform="matrix(54.1667,0,0,54.1667,284.46,101.576)">
                    <path d="M0.204,0.005C0.154,0.005 0.129,-0.023 0.129,-0.078C0.129,-0.106 0.136,-0.137 0.151,-0.17C0.166,-0.203 0.182,-0.231 0.199,-0.254C0.196,-0.253 0.191,-0.253 0.186,-0.253C0.17,-0.253 0.157,-0.264 0.146,-0.287L0.072,-0.191C0.031,-0.14 0.007,-0.114 0,-0.114C-0.003,-0.114 -0.005,-0.115 -0.005,-0.118C-0.005,-0.125 0.001,-0.134 0.012,-0.147C0.07,-0.214 0.111,-0.271 0.135,-0.318C0.15,-0.376 0.17,-0.405 0.193,-0.405C0.208,-0.405 0.216,-0.398 0.216,-0.385C0.216,-0.372 0.208,-0.355 0.191,-0.334L0.167,-0.302C0.167,-0.288 0.177,-0.281 0.198,-0.281C0.21,-0.281 0.223,-0.285 0.238,-0.294L0.264,-0.31C0.265,-0.311 0.269,-0.311 0.274,-0.311C0.279,-0.311 0.285,-0.308 0.291,-0.301C0.297,-0.294 0.299,-0.288 0.297,-0.283L0.228,-0.196C0.185,-0.141 0.164,-0.098 0.164,-0.067C0.164,-0.035 0.179,-0.019 0.208,-0.019C0.239,-0.019 0.276,-0.035 0.321,-0.068C0.348,-0.087 0.372,-0.109 0.394,-0.133C0.415,-0.157 0.426,-0.169 0.428,-0.169C0.433,-0.169 0.435,-0.167 0.435,-0.162C0.435,-0.157 0.432,-0.151 0.426,-0.144L0.394,-0.108C0.376,-0.089 0.356,-0.071 0.334,-0.054C0.281,-0.015 0.238,0.005 0.204,0.005Z" style="fill:white;fill-rule:nonzero;"/>
                </g>
            </g>
        </g>
    </g>
</svg>
